<svg width="1280" height="1024" viewBox="0 0 1280 1024" fill="none" xmlns="http://www.w3.org/2000/svg">
<path d="M1040.97 300.132C1040.97 300.132 1099.98 457.467 1121.91 532.457C1143.83 607.447 1160.84 691.956 1147 761.177C1133.15 830.399 1064.22 856.357 1048.65 855.492C1048.65 855.492 1044.21 856.285 1038.05 851.957C1031.88 847.631 999.324 820.592 966.156 786.27C932.988 751.949 869.245 684.168 826.559 681.573C808.316 680.461 647.439 680.566 639.999 680.542C632.561 680.567 471.683 680.462 453.439 681.573C410.753 684.168 347.011 751.949 313.843 786.27C280.675 820.592 248.119 847.631 241.954 851.957C235.789 856.285 231.354 855.492 231.354 855.492C215.779 856.357 146.846 830.399 133.002 761.177C119.158 691.956 136.174 607.447 158.095 532.457C180.016 457.467 239.034 300.132 239.034 300.132C239.034 300.132 247.687 274.606 260.017 266.387C272.347 258.166 304.362 239.022 353.033 224.313C401.705 209.603 422.904 209.062 435.667 209.062C448.429 209.062 465.951 229.072 465.951 229.072C465.951 229.072 544.987 316.003 554.289 326.387H725.711C735.013 316.003 814.049 229.072 814.049 229.072C814.049 229.072 831.571 209.062 844.334 209.062C857.096 209.062 878.296 209.603 926.967 224.313C975.638 239.022 1007.65 258.166 1019.98 266.387C1032.31 274.606 1040.97 300.132 1040.97 300.132Z" stroke="white" stroke-width="2"/>
<path d="M760 194.002C780.911 193.569 780.559 192.128 801.469 179.868C822.379 167.611 839.685 169.052 839.685 169.052C903.715 169.918 965.871 206.548 980.436 214.479C995.001 222.412 994.137 227.891 994.137 227.891L1004.79 256.884C988.111 247.464 961.945 234.775 927.358 224.322C878.687 209.612 857.487 209.071 844.725 209.071C839.032 209.071 832.391 213.053 826.782 217.464H760M760 194.002C742.206 194.37 663.326 193.991 640.391 194C617.457 193.991 537.794 194.37 520 194.002M760 194.002V217.464M520 194.002C499.09 193.569 500.225 192.128 479.314 179.868C458.404 167.611 441.098 169.052 441.098 169.052C377.068 169.918 314.912 206.548 300.347 214.479C285.782 222.412 286.646 227.891 286.646 227.891L276 256.881C292.677 247.461 318.842 234.773 353.424 224.322C402.096 209.612 423.295 209.071 436.058 209.071C441.751 209.071 448.391 213.053 454 217.464H520M520 194.002V217.464M520 217.464H760" stroke="white" stroke-width="2"/>
<circle cx="496" cy="549" r="79.5" stroke="white"/>
<path d="M479.017 476.671L479.018 476.671C481.978 475.793 489.045 475 498.471 475C505.734 475 509.7 475.474 512.709 476.645L512.709 476.645C516.319 478.048 518.021 479.214 518.807 479.956C519.195 480.323 519.345 480.572 519.397 480.68C519.403 480.692 519.407 480.702 519.411 480.71V524.591V525.591H520.411H564.122C564.183 525.63 564.258 525.681 564.344 525.743C564.627 525.948 565.036 526.281 565.497 526.777C566.416 527.766 567.559 529.416 568.328 532.013L568.329 532.014C569.103 534.626 569.817 541.258 569.97 548.232C570.046 551.698 569.982 555.208 569.725 558.297C569.465 561.408 569.015 564.01 568.355 565.705L569.287 566.068L568.355 565.706C566.952 569.315 565.786 571.017 565.044 571.803C564.677 572.191 564.428 572.341 564.32 572.393C564.308 572.399 564.298 572.403 564.29 572.407H520.411H519.411V573.407V615.667C519.409 615.674 519.407 615.682 519.404 615.69C519.379 615.777 519.334 615.914 519.263 616.092C519.12 616.448 518.869 616.963 518.448 617.555C517.611 618.73 516.077 620.24 513.298 621.391C512.025 621.917 510.063 622.327 507.31 622.6C504.574 622.871 501.126 623 496.921 623C492.319 623 488.392 622.846 485.309 622.561C482.189 622.274 480.037 621.861 478.912 621.392L478.527 622.315L478.912 621.392C476.661 620.454 475.053 618.946 474.002 617.656C473.478 617.013 473.098 616.431 472.851 616.014C472.737 615.822 472.652 615.666 472.595 615.556V573.407V572.407H471.595H429.335C429.327 572.405 429.319 572.403 429.311 572.4C429.224 572.375 429.087 572.33 428.909 572.259C428.553 572.116 428.038 571.865 427.446 571.444C426.271 570.607 424.76 569.073 423.61 566.294L423.61 566.294C423.063 564.974 422.637 562.485 422.363 559.292C422.092 556.14 421.978 552.422 422.003 548.725C422.029 545.028 422.194 541.371 422.477 538.342C422.765 535.264 423.166 532.972 423.609 531.909C424.547 529.657 426.055 528.049 427.345 526.998C427.988 526.473 428.57 526.094 428.987 525.847C429.179 525.733 429.336 525.649 429.446 525.591H471.595H472.595V524.591V480.878C472.634 480.817 472.685 480.742 472.747 480.656C472.952 480.373 473.285 479.964 473.781 479.503C474.77 478.584 476.42 477.441 479.017 476.671Z" stroke="white" stroke-width="2"/>
<path d="M911.999 407C889.944 407 872 424.943 872 447C872 469.055 889.944 487 911.999 487C934.055 487 952 469.056 952 447C952 424.944 934.055 407 911.999 407ZM911.999 409.002C932.951 409.002 949.998 426.047 949.998 447C949.998 467.952 932.951 484.998 911.999 484.998C891.048 484.998 874.002 467.952 874.002 447C874.002 426.047 891.048 409.002 911.999 409.002Z" fill="white"/>
<path d="M917.936 448.967L912.059 432.563L906.302 448.967H917.936ZM933.79 466.455H924.421L920.7 456.414H903.655L900.136 466.455H891L907.609 422.25H916.713L933.79 466.455Z" fill="white"/>
<path d="M981.999 337C959.944 337 942 354.943 942 376.999C942 399.055 959.944 417 981.999 417C1004.06 417 1022 399.056 1022 376.999C1022 354.944 1004.06 337 981.999 337ZM981.999 339.002C1002.95 339.002 1020 356.047 1020 376.999C1020 397.952 1002.95 414.998 981.999 414.998C961.048 414.998 944.002 397.952 944.002 376.999C944.002 356.047 961.048 339.002 981.999 339.002Z" fill="white"/>
<path d="M975.541 379.775V391.458H979.927C982.645 391.458 984.369 391.368 985.1 391.189C986.22 390.952 987.136 390.37 987.841 389.444C988.543 388.52 988.897 387.285 988.897 385.735C988.897 384.421 988.625 383.31 988.081 382.398C987.538 381.483 986.753 380.818 985.724 380.4C984.696 379.982 982.466 379.774 979.037 379.774H975.54V379.775H975.541ZM975.541 362.4V372.503H980.487C983.424 372.503 981.789 372.452 982.502 372.353C983.793 372.175 984.807 371.652 985.546 370.788C986.286 369.923 986.654 368.787 986.654 367.376C986.654 366.025 986.337 364.927 985.701 364.082C985.062 363.237 984.116 362.725 982.858 362.547C982.111 362.448 983.422 362.4 979.874 362.4H975.541ZM968 355.125H982.931C985.886 355.125 986.533 355.271 987.984 355.56C989.437 355.847 990.738 356.448 991.883 357.361C993.03 358.275 993.988 359.492 994.75 361.013C995.514 362.534 995.896 364.239 995.896 366.125C995.896 368.17 995.423 370.047 994.481 371.758C993.54 373.466 992.26 374.748 990.646 375.603C992.921 376.377 996.23 377.698 997.453 379.566C998.675 381.433 999.287 383.629 999.287 386.153C999.287 388.14 998.894 390.069 998.104 391.947C997.313 393.824 996.234 395.325 994.866 396.449C993.499 397.571 991.815 398.26 989.808 398.522C988.552 398.679 985.521 398.779 980.712 398.819H968V355.125Z" fill="white"/>
<path d="M911.999 267C889.944 267 872 284.943 872 306.999C872 329.055 889.944 347 911.999 347C934.056 347 952 329.056 952 306.999C952 284.944 934.056 267 911.999 267ZM911.999 269.002C932.951 269.002 949.998 286.047 949.998 306.999C949.998 327.952 932.951 344.998 911.999 344.998C891.048 344.998 874.002 327.952 874.002 306.999C874.002 286.047 891.048 269.002 911.999 269.002Z" fill="white"/>
<path d="M907.332 330.794V312.154L892 286.5H901.907L911.754 304.023L921.406 286.5H931.138L915.751 312.211V330.795L907.332 330.794Z" fill="white"/>
<path d="M842 337C819.944 337 802 354.943 802 376.999C802 399.055 819.944 417 842 417C864.056 417 882 399.056 882 376.999C882 354.944 864.056 337 842 337ZM842 339.002C852.132 339.002 861.669 342.96 868.855 350.145C876.04 357.33 879.998 366.866 879.998 376.999C879.998 397.952 862.952 414.998 842 414.998C821.047 414.998 804.002 397.952 804.002 376.999C804.002 356.047 821.047 339.002 842 339.002Z" fill="white"/>
<path d="M822 398.634L836.933 376.027L823.402 355.312H833.714L842.476 369.233L851.061 355.312H861.284L847.691 376.354L862.627 398.634H851.983L842.299 383.651L832.583 398.634H822Z" fill="white"/>
<circle cx="640" cy="271" r="39" stroke="white" stroke-width="2"/>
<path d="M650.618 253.821C658.663 243.639 666.503 242.096 666.503 242.096C665.161 240.553 661.446 238.289 661.446 238.289C654.004 236.532 641.273 243.39 640 244.092C638.727 243.39 625.996 236.532 618.554 238.289C618.554 238.289 614.841 240.553 613.498 242.096C613.498 242.096 621.338 243.639 629.384 253.821C629.384 253.821 604.627 283.752 609.68 296.505C609.68 296.505 610.92 298.357 612.879 300.002C612.879 300.002 608.662 288.818 640 262.965C671.338 288.818 667.123 300.002 667.123 300.002C669.082 298.357 670.319 296.505 670.319 296.505C675.374 283.751 650.618 253.821 650.618 253.821Z" fill="white"/>
<circle cx="714" cy="377" r="23" stroke="white" stroke-width="2"/>
<path d="M724 381H704V384H724V381Z" fill="white"/>
<path d="M724 375H704V378H724V375Z" fill="white"/>
<path d="M724 369H704V372H724V369Z" fill="white"/>
<circle cx="564" cy="377" r="22" stroke="white" stroke-width="2"/>
<path d="M575.5 385.5H562.5V376.5H575.5V385.5Z" stroke="white" stroke-width="3"/>
<path d="M559 376H554V370L563 370V372H566V367H551V379H559V376Z" fill="white"/>
<circle cx="375" cy="377" r="79.5" stroke="white"/>
<circle cx="375" cy="377" r="59" stroke="white" stroke-width="2"/>
<circle cx="375" cy="376" r="44.5" stroke="white"/>
<circle cx="782" cy="549" r="79.5" stroke="white"/>
<circle cx="782" cy="549" r="59" stroke="white" stroke-width="2"/>
<circle cx="782" cy="548" r="44.5" stroke="white"/>
</svg>
