<svg width="1280" height="1024" viewBox="0 0 1280 1024" fill="none" xmlns="http://www.w3.org/2000/svg">
<path d="M1040.97 300.132C1040.97 300.132 1099.98 457.467 1121.91 532.457C1143.83 607.447 1160.84 691.956 1147 761.177C1133.15 830.399 1064.22 856.357 1048.65 855.492C1048.65 855.492 1044.21 856.285 1038.05 851.957C1031.88 847.631 999.324 820.592 966.156 786.27C932.988 751.949 869.245 684.168 826.559 681.573C808.316 680.461 647.439 680.566 639.999 680.542C632.561 680.567 471.683 680.462 453.439 681.573C410.753 684.168 347.011 751.949 313.843 786.27C280.675 820.592 248.119 847.631 241.954 851.957C235.789 856.285 231.354 855.492 231.354 855.492C215.779 856.357 146.846 830.399 133.002 761.177C119.158 691.956 136.174 607.447 158.095 532.457C180.016 457.467 239.034 300.132 239.034 300.132C239.034 300.132 247.687 274.606 260.017 266.387C272.347 258.166 304.362 239.022 353.033 224.313C401.705 209.603 422.904 209.062 435.667 209.062H844.334C857.096 209.062 878.296 209.603 926.967 224.313C975.638 239.022 1007.65 258.166 1019.98 266.387C1032.31 274.606 1040.97 300.132 1040.97 300.132Z" stroke="white" stroke-width="2"/>
<path d="M276 256.881L286.646 227.891C286.646 227.891 285.782 222.412 300.347 214.479C314.912 206.548 377.068 169.918 441.098 169.052C441.098 169.052 458.404 167.611 479.314 179.868C500.225 192.128 499.09 193.569 520 194.002C537.794 194.37 617.457 193.991 640.391 194C663.326 193.991 742.206 194.37 760 194.002C780.911 193.569 780.559 192.128 801.469 179.868C822.379 167.611 839.685 169.052 839.685 169.052C903.715 169.918 965.871 206.548 980.436 214.479C995.001 222.412 994.137 227.891 994.137 227.891L1004.79 256.884" stroke="white" stroke-width="2"/>
<rect x="609" y="421" width="62" height="36" rx="18" stroke="white" stroke-width="2"/>
<path d="M629 440V446H652V440" stroke="white" stroke-width="2"/>
<path d="M640.5 441.5V431" stroke="white" stroke-width="2"/>
<path d="M636 435.5L640.5 431L645 435.5" stroke="white" stroke-width="2"/>
<circle cx="496" cy="549" r="79.5" stroke="white"/>
<path d="M477.866 471.786L477.867 471.786C481.034 470.846 488.58 470 498.636 470C506.383 470 510.625 470.505 513.847 471.759L513.848 471.759C517.701 473.258 519.526 474.505 520.373 475.305C520.792 475.701 520.957 475.973 521.017 476.096C521.026 476.116 521.033 476.132 521.038 476.144V522.964V523.964H522.038H568.683C568.752 524.008 568.838 524.066 568.939 524.139C569.245 524.359 569.684 524.718 570.179 525.25C571.166 526.312 572.39 528.081 573.214 530.862L573.214 530.862C574.043 533.658 574.805 540.74 574.968 548.179C575.049 551.878 574.981 555.625 574.706 558.922C574.429 562.242 573.948 565.025 573.241 566.843L574.173 567.206L573.241 566.843C571.742 570.697 570.495 572.522 569.695 573.369C569.299 573.788 569.027 573.953 568.904 574.013C568.884 574.022 568.868 574.029 568.856 574.034H522.038H521.038V575.034V620.12C521.035 620.131 521.032 620.142 521.028 620.155C521.001 620.249 520.953 620.398 520.875 620.59C520.721 620.974 520.451 621.528 519.999 622.164C519.099 623.427 517.453 625.046 514.476 626.278C513.109 626.844 511.009 627.282 508.071 627.573C505.149 627.862 501.469 628 496.982 628C492.072 628 487.882 627.835 484.59 627.532C481.262 627.225 478.957 626.784 477.747 626.279L477.362 627.202L477.747 626.279C475.333 625.273 473.609 623.657 472.483 622.275C471.922 621.586 471.515 620.962 471.25 620.515C471.123 620.301 471.03 620.128 470.968 620.009V575.034V574.034H469.968H424.881C424.871 574.031 424.859 574.028 424.847 574.024C424.752 573.997 424.603 573.948 424.411 573.871C424.027 573.717 423.473 573.447 422.837 572.994C421.573 572.095 419.954 570.448 418.722 567.472L418.722 567.472C418.135 566.054 417.68 563.39 417.387 559.984C417.098 556.619 416.977 552.651 417.004 548.706C417.031 544.761 417.207 540.858 417.509 537.625C417.816 534.343 418.244 531.888 418.721 530.744C419.728 528.329 421.344 526.605 422.726 525.479C423.415 524.918 424.039 524.511 424.486 524.246C424.7 524.119 424.873 524.026 424.992 523.964H469.968H470.968V522.964V476.317C471.012 476.248 471.07 476.162 471.143 476.061C471.363 475.755 471.722 475.316 472.254 474.821C473.316 473.834 475.085 472.61 477.866 471.786Z" stroke="white" stroke-width="2"/>
<rect x="471" y="524" width="50" height="50" stroke="white" stroke-width="2"/>
<path d="M911.999 407C889.944 407 872 424.943 872 447C872 469.055 889.944 487 911.999 487C934.055 487 952 469.056 952 447C952 424.944 934.055 407 911.999 407ZM911.999 409.002C932.951 409.002 949.998 426.047 949.998 447C949.998 467.952 932.951 484.998 911.999 484.998C891.048 484.998 874.002 467.952 874.002 447C874.002 426.047 891.048 409.002 911.999 409.002Z" fill="white"/>
<path d="M917.936 448.967L912.059 432.563L906.302 448.967H917.936ZM933.79 466.455H924.421L920.7 456.414H903.655L900.136 466.455H891L907.609 422.25H916.713L933.79 466.455Z" fill="white"/>
<path d="M981.999 337C959.944 337 942 354.943 942 376.999C942 399.055 959.944 417 981.999 417C1004.06 417 1022 399.056 1022 376.999C1022 354.944 1004.06 337 981.999 337ZM981.999 339.002C1002.95 339.002 1020 356.047 1020 376.999C1020 397.952 1002.95 414.998 981.999 414.998C961.048 414.998 944.002 397.952 944.002 376.999C944.002 356.047 961.048 339.002 981.999 339.002Z" fill="white"/>
<path d="M975.541 379.775V391.458H979.927C982.645 391.458 984.369 391.368 985.1 391.189C986.22 390.952 987.136 390.37 987.841 389.444C988.543 388.52 988.897 387.285 988.897 385.735C988.897 384.421 988.625 383.31 988.081 382.398C987.538 381.483 986.753 380.818 985.724 380.4C984.696 379.982 982.466 379.774 979.037 379.774H975.54V379.775H975.541ZM975.541 362.4V372.503H980.487C983.424 372.503 981.789 372.452 982.502 372.353C983.793 372.175 984.807 371.652 985.546 370.788C986.286 369.923 986.654 368.787 986.654 367.376C986.654 366.025 986.337 364.927 985.701 364.082C985.062 363.237 984.116 362.725 982.858 362.547C982.111 362.448 983.422 362.4 979.874 362.4H975.541ZM968 355.125H982.931C985.886 355.125 986.533 355.271 987.984 355.56C989.437 355.847 990.738 356.448 991.883 357.361C993.03 358.275 993.988 359.492 994.75 361.013C995.514 362.534 995.896 364.239 995.896 366.125C995.896 368.17 995.423 370.047 994.481 371.758C993.54 373.466 992.26 374.748 990.646 375.603C992.921 376.377 996.23 377.698 997.453 379.566C998.675 381.433 999.287 383.629 999.287 386.153C999.287 388.14 998.894 390.069 998.104 391.947C997.313 393.824 996.234 395.325 994.866 396.449C993.499 397.571 991.815 398.26 989.808 398.522C988.552 398.679 985.521 398.779 980.712 398.819H968V355.125Z" fill="white"/>
<path d="M911.999 267C889.944 267 872 284.943 872 306.999C872 329.055 889.944 347 911.999 347C934.056 347 952 329.056 952 306.999C952 284.944 934.056 267 911.999 267ZM911.999 269.002C932.951 269.002 949.998 286.047 949.998 306.999C949.998 327.952 932.951 344.998 911.999 344.998C891.048 344.998 874.002 327.952 874.002 306.999C874.002 286.047 891.048 269.002 911.999 269.002Z" fill="white"/>
<path d="M907.332 330.794V312.154L892 286.5H901.907L911.754 304.023L921.406 286.5H931.138L915.751 312.211V330.795L907.332 330.794Z" fill="white"/>
<path d="M842 337C819.944 337 802 354.943 802 376.999C802 399.055 819.944 417 842 417C864.056 417 882 399.056 882 376.999C882 354.944 864.056 337 842 337ZM842 339.002C852.132 339.002 861.669 342.96 868.855 350.145C876.04 357.33 879.998 366.866 879.998 376.999C879.998 397.952 862.952 414.998 842 414.998C821.047 414.998 804.002 397.952 804.002 376.999C804.002 356.047 821.047 339.002 842 339.002Z" fill="white"/>
<path d="M822 398.634L836.933 376.027L823.402 355.312H833.714L842.476 369.233L851.061 355.312H861.284L847.691 376.354L862.627 398.634H851.983L842.299 383.651L832.583 398.634H822Z" fill="white"/>
<circle cx="640" cy="271" r="39" stroke="white" stroke-width="2"/>
<path d="M650.618 253.821C658.663 243.639 666.503 242.096 666.503 242.096C665.161 240.553 661.446 238.289 661.446 238.289C654.004 236.532 641.273 243.39 640 244.092C638.727 243.39 625.996 236.532 618.554 238.289C618.554 238.289 614.841 240.553 613.498 242.096C613.498 242.096 621.338 243.639 629.384 253.821C629.384 253.821 604.627 283.752 609.68 296.505C609.68 296.505 610.92 298.357 612.879 300.002C612.879 300.002 608.662 288.818 640 262.965C671.338 288.818 667.123 300.002 667.123 300.002C669.082 298.357 670.319 296.505 670.319 296.505C675.374 283.751 650.618 253.821 650.618 253.821Z" fill="white"/>
<circle cx="714" cy="377" r="23" stroke="white" stroke-width="2"/>
<path d="M724 381H704V384H724V381Z" fill="white"/>
<path d="M724 375H704V378H724V375Z" fill="white"/>
<path d="M724 369H704V372H724V369Z" fill="white"/>
<circle cx="564" cy="377" r="22" stroke="white" stroke-width="2"/>
<path d="M575.5 385.5H562.5V376.5H575.5V385.5Z" stroke="white" stroke-width="3"/>
<path d="M559 376H554V370L563 370V372H566V367H551V379H559V376Z" fill="white"/>
<circle cx="375" cy="377" r="79.5" stroke="white"/>
<circle cx="375" cy="377" r="59" stroke="white" stroke-width="2"/>
<circle cx="375" cy="376" r="44.5" stroke="white"/>
<circle cx="782" cy="549" r="79.5" stroke="white"/>
<circle cx="782" cy="549" r="59" stroke="white" stroke-width="2"/>
<circle cx="782" cy="548" r="44.5" stroke="white"/>
</svg>
