<svg width="32" height="32" viewBox="0 0 32 32" fill="none" xmlns="http://www.w3.org/2000/svg">
<path d="M15.008 15.504C15.008 16.112 14.848 16.688 14.56 17.2C14.272 17.744 13.856 18.16 13.344 18.48L15.104 22H12.896L11.36 19.024H10.016V22H8V12.016H11.488C11.968 12.016 12.448 12.112 12.864 12.304C13.28 12.464 13.664 12.72 13.984 13.04C14.304 13.36 14.56 13.744 14.72 14.16C14.912 14.576 15.008 15.024 15.008 15.504ZM10.016 17.008H11.488C11.904 17.008 12.256 16.88 12.576 16.592C12.864 16.272 12.992 15.92 12.992 15.504C12.992 15.088 12.864 14.736 12.576 14.448C12.256 14.16 11.904 14 11.488 14H10.016V17.008ZM23.968 16.72C24.288 17.04 24.544 17.36 24.736 17.776C24.896 18.16 24.992 18.576 24.992 19.024C24.992 19.44 24.928 19.824 24.768 20.176C24.608 20.56 24.384 20.88 24.128 21.136C23.84 21.424 23.552 21.616 23.168 21.776C22.816 21.936 22.432 22 22.016 22H18.016V12.016H21.504C21.92 12.016 22.304 12.08 22.656 12.24C23.04 12.4 23.36 12.624 23.616 12.88C23.904 13.168 24.096 13.488 24.256 13.84C24.416 14.224 24.512 14.608 24.512 15.024C24.512 15.664 24.32 16.24 23.968 16.72ZM20 16.016H21.504C21.76 16.016 22.016 15.92 22.208 15.728C22.4 15.536 22.496 15.28 22.496 15.024C22.496 14.736 22.4 14.512 22.208 14.32C22.016 14.128 21.76 14 21.504 14H20V16.016ZM22.016 20.016C22.272 20.016 22.496 19.92 22.688 19.728C22.912 19.536 23.008 19.28 23.008 19.024C23.008 18.736 22.912 18.512 22.688 18.32C22.496 18.128 22.272 18 22.016 18H20V20.016H22.016ZM32 22C32 22.576 31.904 23.088 31.68 23.568C31.488 24.048 31.2 24.464 30.816 24.848C30.464 25.2 30.048 25.488 29.568 25.712C29.056 25.904 28.544 26 28 26H6.496C5.44 26 4.512 25.744 3.712 25.168C2.912 24.624 2.368 23.824 2.016 22.8L0.544 18.32C0.352 17.744 0.224 17.104 0.128 16.432C0.032 15.792 0 15.152 0 14.512C0 13.936 0.096 13.36 0.32 12.784C0.544 12.24 0.864 11.728 1.312 11.312L5.312 7.312C5.728 6.896 6.208 6.576 6.784 6.352C7.328 6.128 7.904 6 8.512 6H11.008C11.84 6 12.8 6.032 13.856 6.096C14.912 6.16 15.968 6.256 17.088 6.384C18.208 6.512 19.36 6.704 20.512 6.928C21.632 7.152 22.752 7.44 23.808 7.76C24.864 8.112 25.856 8.496 26.784 8.944C27.68 9.424 28.48 9.936 29.184 10.544C29.568 10.896 29.92 11.28 30.24 11.728C30.56 12.144 30.784 12.656 30.912 13.168C30.944 13.296 30.944 13.424 30.976 13.552C30.976 13.68 30.976 13.808 31.008 13.968L32 21.904V22ZM28 24.016C28.224 24.016 28.448 23.984 28.672 23.92C28.864 23.824 29.056 23.728 29.216 23.6C29.408 23.472 29.536 23.312 29.664 23.12C29.792 22.928 29.888 22.736 29.952 22.512C29.952 22.48 29.952 22.416 29.984 22.32C29.984 22.224 30.016 22.16 30.016 22.064L29.024 14.128C29.024 14.128 29.024 14.096 28.992 14.064C28.992 14.064 28.992 14.032 28.992 14C28.992 13.68 28.928 13.392 28.736 13.072C28.576 12.784 28.352 12.496 28.064 12.24C27.776 11.952 27.456 11.728 27.104 11.472C26.752 11.248 26.4 11.056 26.016 10.864C25.664 10.672 25.312 10.48 24.992 10.352C24.64 10.224 24.352 10.096 24.096 10C23.104 9.648 22.048 9.328 20.96 9.072C19.872 8.816 18.752 8.624 17.632 8.464C16.512 8.304 15.392 8.176 14.272 8.112C13.152 8.048 12.064 8.016 11.008 8.016H8.512C8.16 8.016 7.84 8.08 7.52 8.208C7.232 8.304 6.944 8.496 6.688 8.72L2.72 12.72C2.464 12.944 2.304 13.232 2.176 13.552C2.048 13.872 2.016 14.192 2.016 14.512C2.016 15.056 2.048 15.6 2.112 16.144C2.176 16.688 2.272 17.232 2.464 17.712L3.968 22.192C3.968 22.288 4 22.352 4 22.448C4.032 22.512 4.064 22.576 4.096 22.672C4.352 23.12 4.672 23.472 5.12 23.696C5.536 23.92 6.016 24.016 6.496 24.016H28Z" fill="white"/>
</svg>
