<svg width="32" height="32" viewBox="0 0 32 32" fill="none" xmlns="http://www.w3.org/2000/svg">
<path fill-rule="evenodd" clip-rule="evenodd" d="M25.504 24.016C25.984 24.016 26.464 23.92 26.88 23.696C27.328 23.472 27.648 23.12 27.904 22.672C27.936 22.576 27.968 22.512 28 22.448C28 22.4 28.008 22.36 28.016 22.32C28.024 22.28 28.032 22.24 28.032 22.192L29.536 17.712C29.728 17.232 29.824 16.688 29.888 16.144C29.952 15.6 30.016 15.056 30.016 14.512C30.016 14.192 29.952 13.872 29.824 13.552C29.696 13.232 29.536 12.944 29.28 12.72L25.312 8.72C25.056 8.496 24.768 8.304 24.48 8.208C24.16 8.08 23.84 8.016 23.488 8.016H20.992C19.936 8.016 18.848 8.048 17.728 8.112C16.608 8.176 15.488 8.304 14.368 8.464C13.248 8.624 12.128 8.816 11.04 9.072C9.952 9.328 8.896 9.648 7.904 10C7.79593 10.0405 7.68216 10.0868 7.56028 10.1363C7.39344 10.2041 7.2114 10.278 7.008 10.352C6.688 10.48 6.336 10.672 5.984 10.864C5.6 11.056 5.248 11.248 4.896 11.472C4.86374 11.4955 4.83174 11.5187 4.80002 11.5417C4.48561 11.7696 4.1976 11.9784 3.936 12.24C3.648 12.496 3.424 12.784 3.264 13.072C3.072 13.392 3.008 13.68 3.008 14V14.064C2.976 14.096 2.976 14.128 2.976 14.128L2.016 22.096V22.32C2.048 22.416 2.048 22.48 2.048 22.512C2.112 22.736 2.208 22.928 2.336 23.12C2.464 23.312 2.592 23.472 2.784 23.6C2.944 23.728 3.136 23.824 3.328 23.92C3.552 23.984 3.776 24.016 4 24.016H25.504ZM14.016 20.016H10.016V12.016H8V22H14.016V20.016ZM22.72 17.776C22.56 17.36 22.272 17.04 21.952 16.72C22.304 16.24 22.496 15.664 22.496 15.024C22.496 14.608 22.432 14.224 22.272 13.84C22.112 13.488 21.888 13.168 21.632 12.88C21.344 12.624 21.024 12.4 20.672 12.24C20.32 12.08 19.904 12.016 19.488 12.016H16V22H20C20.416 22 20.8 21.936 21.184 21.776C21.536 21.616 21.856 21.424 22.112 21.136C22.4 20.88 22.624 20.56 22.752 20.176C22.912 19.824 23.008 19.44 23.008 19.024C23.008 18.576 22.912 18.16 22.72 17.776Z" fill="white"/>
<path d="M18.016 16.016H19.488C19.776 16.016 20 15.92 20.192 15.728C20.416 15.536 20.512 15.28 20.512 15.024C20.512 14.736 20.416 14.512 20.192 14.32C20 14.128 19.776 14 19.488 14H18.016V16.016Z" fill="white"/>
<path d="M20 20.016C20.256 20.016 20.512 19.92 20.704 19.728C20.896 19.536 20.992 19.28 20.992 19.024C20.992 18.736 20.896 18.512 20.704 18.32C20.512 18.128 20.256 18 20 18H18.016V20.016H20Z" fill="white"/>
<path fill-rule="evenodd" clip-rule="evenodd" d="M23.488 6C24.096 6 24.672 6.128 25.216 6.352C25.792 6.576 26.272 6.896 26.688 7.312L30.688 11.312C31.136 11.728 31.456 12.24 31.68 12.784C31.904 13.36 32 13.936 32 14.512C32 15.152 31.968 15.792 31.872 16.432C31.776 17.104 31.648 17.744 31.456 18.32L29.952 22.8C29.888 22.928 29.856 23.056 29.824 23.184C29.8164 23.2067 29.8089 23.2311 29.8009 23.2569C29.7751 23.3404 29.7449 23.4382 29.696 23.536C29.504 23.92 29.248 24.272 28.96 24.592C28.64 24.912 28.32 25.168 27.968 25.36C27.584 25.584 27.2 25.744 26.784 25.84C26.368 25.968 25.952 26 25.504 26H4C3.456 26 2.944 25.904 2.432 25.712C1.952 25.488 1.536 25.2 1.184 24.848C0.8 24.464 0.512 24.048 0.32 23.568C0.096 23.088 0 22.576 0 22V21.904L0.992 13.968C1.024 13.808 1.024 13.68 1.024 13.552C1.04 13.488 1.048 13.424 1.056 13.36C1.064 13.296 1.072 13.232 1.088 13.168C1.216 12.656 1.44 12.144 1.76 11.728C2.08 11.28 2.432 10.896 2.816 10.544C3.488 9.936 4.288 9.424 5.216 8.944C6.144 8.496 7.136 8.112 8.192 7.76C9.248 7.44 10.368 7.152 11.488 6.928C12.64 6.704 13.792 6.512 14.912 6.384C16.032 6.256 17.088 6.16 18.144 6.096C19.2 6.032 20.16 6 20.992 6H23.488ZM25.504 24.016C25.984 24.016 26.464 23.92 26.88 23.696C27.328 23.472 27.648 23.12 27.904 22.672C27.936 22.576 27.968 22.512 28 22.448C28 22.4 28.008 22.36 28.016 22.32C28.024 22.28 28.032 22.24 28.032 22.192L29.536 17.712C29.728 17.232 29.824 16.688 29.888 16.144C29.952 15.6 30.016 15.056 30.016 14.512C30.016 14.192 29.952 13.872 29.824 13.552C29.696 13.232 29.536 12.944 29.28 12.72L25.312 8.72C25.056 8.496 24.768 8.304 24.48 8.208C24.16 8.08 23.84 8.016 23.488 8.016H20.992C19.936 8.016 18.848 8.048 17.728 8.112C16.608 8.176 15.488 8.304 14.368 8.464C13.248 8.624 12.128 8.816 11.04 9.072C9.952 9.328 8.896 9.648 7.904 10C7.79593 10.0405 7.68216 10.0868 7.56028 10.1363C7.39344 10.2041 7.2114 10.278 7.008 10.352C6.688 10.48 6.336 10.672 5.984 10.864C5.6 11.056 5.248 11.248 4.896 11.472L4.80002 11.5417C4.48561 11.7696 4.1976 11.9784 3.936 12.24C3.648 12.496 3.424 12.784 3.264 13.072C3.072 13.392 3.008 13.68 3.008 14V14.064C2.976 14.096 2.976 14.128 2.976 14.128L2.016 22.096V22.32C2.048 22.416 2.048 22.48 2.048 22.512C2.112 22.736 2.208 22.928 2.336 23.12C2.464 23.312 2.592 23.472 2.784 23.6C2.944 23.728 3.136 23.824 3.328 23.92C3.552 23.984 3.776 24.016 4 24.016H25.504Z" fill="white"/>
</svg>
