<svg width="32" height="32" viewBox="0 0 32 32" fill="none" xmlns="http://www.w3.org/2000/svg">
<path fill-rule="evenodd" clip-rule="evenodd" d="M16 29.984C17.28 29.984 18.528 29.824 19.712 29.504C20.896 29.152 22.016 28.704 23.04 28.096C24.096 27.488 25.024 26.752 25.888 25.888C26.752 25.024 27.488 24.096 28.096 23.04C28.704 22.016 29.152 20.896 29.504 19.712C29.824 18.528 30.016 17.28 30.016 16C30.016 14.72 29.824 13.472 29.504 12.288C29.152 11.104 28.704 9.984 28.096 8.96C27.488 7.904 26.752 6.976 25.888 6.112C25.024 5.248 24.096 4.512 23.04 3.904C22.016 3.296 20.896 2.848 19.712 2.496C18.528 2.176 17.28 1.984 16 1.984C14.72 1.984 13.472 2.176 12.288 2.496C11.104 2.848 9.984 3.296 8.96 3.904C7.904 4.512 6.976 5.248 6.112 6.112C5.248 6.976 4.512 7.904 3.904 8.96C3.296 9.984 2.848 11.104 2.496 12.288C2.176 13.472 2.016 14.72 2.016 16C2.016 17.28 2.176 18.528 2.496 19.712C2.848 20.896 3.296 22.016 3.904 23.04C4.512 24.096 5.248 25.024 6.112 25.888C6.976 26.752 7.904 27.488 8.96 28.096C9.984 28.704 11.104 29.152 12.288 29.504C13.472 29.824 14.72 29.984 16 29.984ZM23.008 15.008H8.992V16.992H23.008V15.008ZM23.008 9.984H8.992V12H23.008V9.984ZM23.008 20H8.992V21.984H23.008V20Z" fill="white"/>
<path fill-rule="evenodd" clip-rule="evenodd" d="M20.256 0.576C18.88 0.192 17.472 0 16 0C14.528 0 13.12 0.192 11.744 0.576C10.4 0.96 9.12 1.504 7.936 2.176C6.752 2.88 5.664 3.712 4.704 4.704C3.712 5.664 2.88 6.752 2.176 7.936C1.504 9.12 0.96 10.4 0.576 11.744C0.192 13.12 0 14.528 0 16C0 17.472 0.192 18.88 0.576 20.256C0.96 21.6 1.504 22.88 2.176 24.064C2.88 25.248 3.712 26.336 4.704 27.296C5.664 28.288 6.752 29.12 7.936 29.824C9.12 30.496 10.4 31.04 11.744 31.424C13.12 31.808 14.528 32 16 32C17.472 32 18.88 31.808 20.256 31.424C21.6 31.04 22.88 30.496 24.064 29.824C25.248 29.12 26.336 28.288 27.296 27.296C28.288 26.336 29.12 25.248 29.824 24.064C30.496 22.88 31.04 21.6 31.424 20.256C31.808 18.88 32 17.472 32 16C32 14.528 31.808 13.12 31.424 11.744C31.04 10.4 30.496 9.12 29.824 7.936C29.12 6.752 28.288 5.664 27.296 4.704C26.336 3.712 25.248 2.88 24.064 2.176C22.88 1.504 21.6 0.96 20.256 0.576ZM19.712 29.504C18.528 29.824 17.28 29.984 16 29.984C14.72 29.984 13.472 29.824 12.288 29.504C11.104 29.152 9.984 28.704 8.96 28.096C7.904 27.488 6.976 26.752 6.112 25.888C5.248 25.024 4.512 24.096 3.904 23.04C3.296 22.016 2.848 20.896 2.496 19.712C2.176 18.528 2.016 17.28 2.016 16C2.016 14.72 2.176 13.472 2.496 12.288C2.848 11.104 3.296 9.984 3.904 8.96C4.512 7.904 5.248 6.976 6.112 6.112C6.976 5.248 7.904 4.512 8.96 3.904C9.984 3.296 11.104 2.848 12.288 2.496C13.472 2.176 14.72 1.984 16 1.984C17.28 1.984 18.528 2.176 19.712 2.496C20.896 2.848 22.016 3.296 23.04 3.904C24.096 4.512 25.024 5.248 25.888 6.112C26.752 6.976 27.488 7.904 28.096 8.96C28.704 9.984 29.152 11.104 29.504 12.288C29.824 13.472 30.016 14.72 30.016 16C30.016 17.28 29.824 18.528 29.504 19.712C29.152 20.896 28.704 22.016 28.096 23.04C27.488 24.096 26.752 25.024 25.888 25.888C25.024 26.752 24.096 27.488 23.04 28.096C22.016 28.704 20.896 29.152 19.712 29.504Z" fill="white"/>
</svg>
