<svg width="32" height="32" viewBox="0 0 32 32" fill="none" xmlns="http://www.w3.org/2000/svg">
<path d="M16 0C17.472 0 18.88 0.192 20.256 0.576C21.6 0.96 22.88 1.504 24.064 2.176C25.248 2.88 26.336 3.712 27.296 4.704C28.288 5.664 29.12 6.752 29.824 7.936C30.496 9.12 31.04 10.4 31.424 11.744C31.808 13.12 32 14.528 32 16C32 17.472 31.808 18.912 31.424 20.256C31.04 21.632 30.528 22.912 29.824 24.096C29.12 25.28 28.288 26.336 27.328 27.328C26.336 28.288 25.28 29.12 24.096 29.824C22.912 30.528 21.632 31.04 20.256 31.424C18.912 31.808 17.472 32 16 32C14.528 32 13.088 31.808 11.744 31.424C10.368 31.04 9.088 30.528 7.904 29.824C6.72 29.12 5.664 28.288 4.672 27.328C3.712 26.336 2.88 25.28 2.176 24.096C1.472 22.912 0.96 21.632 0.576 20.256C0.192 18.912 0 17.472 0 16C0 14.528 0.192 13.088 0.576 11.744C0.96 10.368 1.472 9.088 2.176 7.904C2.88 6.72 3.712 5.664 4.672 4.672C5.664 3.712 6.72 2.88 7.904 2.176C9.088 1.472 10.368 0.96 11.744 0.576C13.088 0.192 14.528 0 16 0ZM16 29.984C17.28 29.984 18.528 29.824 19.712 29.504C20.896 29.152 22.016 28.704 23.04 28.096C24.096 27.488 25.024 26.752 25.888 25.888C26.752 25.024 27.488 24.096 28.096 23.04C28.704 22.016 29.152 20.896 29.504 19.712C29.824 18.528 30.016 17.28 30.016 16C30.016 14.72 29.824 13.472 29.504 12.288C29.152 11.104 28.704 9.984 28.096 8.96C27.488 7.904 26.752 6.976 25.888 6.112C25.024 5.248 24.096 4.512 23.04 3.904C22.016 3.296 20.896 2.848 19.712 2.496C18.528 2.176 17.28 1.984 16 1.984C14.72 1.984 13.472 2.176 12.288 2.496C11.104 2.848 9.984 3.296 8.96 3.904C7.904 4.512 6.976 5.248 6.112 6.112C5.248 6.976 4.512 7.904 3.904 8.96C3.296 9.984 2.848 11.104 2.496 12.288C2.176 13.472 2.016 14.72 2.016 16C2.016 17.28 2.176 18.528 2.496 19.712C2.848 20.896 3.296 22.016 3.904 23.04C4.512 24.096 5.248 25.024 6.112 25.888C6.976 26.752 7.904 27.488 8.96 28.096C9.984 28.704 11.104 29.152 12.288 29.504C13.472 29.824 14.72 29.984 16 29.984ZM14.432 9.92L9.984 22.08H12.96L13.824 19.36H18.144L19.008 22.08H22.016L17.664 9.92H14.432ZM14.4 17.28L15.744 13.152C15.776 12.992 15.84 12.8 15.872 12.608C15.904 12.448 15.904 12.256 15.936 12.064H16C16.032 12.256 16.064 12.448 16.096 12.64C16.096 12.8 16.16 12.992 16.192 13.184L17.504 17.28H14.4Z" fill="white"/>
</svg>
