<svg width="32" height="32" viewBox="0 0 32 32" fill="none" xmlns="http://www.w3.org/2000/svg">
<path d="M16 0C17.472 0 18.88 0.192 20.256 0.576C21.6 0.96 22.88 1.504 24.064 2.176C25.248 2.88 26.336 3.712 27.296 4.704C28.288 5.664 29.12 6.752 29.824 7.936C30.496 9.12 31.04 10.4 31.424 11.744C31.808 13.12 32 14.528 32 16C32 17.472 31.808 18.912 31.424 20.256C31.04 21.632 30.528 22.912 29.824 24.096C29.12 25.28 28.288 26.336 27.328 27.328C26.336 28.288 25.28 29.12 24.096 29.824C22.912 30.528 21.632 31.04 20.256 31.424C18.912 31.808 17.472 32 16 32C14.528 32 13.088 31.808 11.744 31.424C10.368 31.04 9.088 30.528 7.904 29.824C6.72 29.12 5.664 28.288 4.672 27.328C3.712 26.336 2.88 25.28 2.176 24.096C1.472 22.912 0.96 21.632 0.576 20.256C0.192 18.912 0 17.472 0 16C0 14.528 0.192 13.088 0.576 11.744C0.96 10.368 1.472 9.088 2.176 7.904C2.88 6.72 3.712 5.664 4.672 4.672C5.664 3.712 6.72 2.88 7.904 2.176C9.088 1.472 10.368 0.96 11.744 0.576C13.088 0.192 14.528 0 16 0ZM16 29.984C17.28 29.984 18.528 29.824 19.712 29.504C20.896 29.152 22.016 28.704 23.04 28.096C24.096 27.488 25.024 26.752 25.888 25.888C26.752 25.024 27.488 24.096 28.096 23.04C28.704 22.016 29.152 20.896 29.504 19.712C29.824 18.528 30.016 17.28 30.016 16C30.016 14.72 29.824 13.472 29.504 12.288C29.152 11.104 28.704 9.984 28.096 8.96C27.488 7.904 26.752 6.976 25.888 6.112C25.024 5.248 24.096 4.512 23.04 3.904C22.016 3.296 20.896 2.848 19.712 2.496C18.528 2.176 17.28 1.984 16 1.984C14.72 1.984 13.472 2.176 12.288 2.496C11.104 2.848 9.984 3.296 8.96 3.904C7.904 4.512 6.976 5.248 6.112 6.112C5.248 6.976 4.512 7.904 3.904 8.96C3.296 9.984 2.848 11.104 2.496 12.288C2.176 13.472 2.016 14.72 2.016 16C2.016 17.28 2.176 18.528 2.496 19.712C2.848 20.896 3.296 22.016 3.904 23.04C4.512 24.096 5.248 25.024 6.112 25.888C6.976 26.752 7.904 27.488 8.96 28.096C9.984 28.704 11.104 29.152 12.288 29.504C13.472 29.824 14.72 29.984 16 29.984ZM18.144 15.552V15.52C18.464 15.424 18.752 15.296 19.04 15.136C19.328 14.976 19.584 14.752 19.808 14.528C20 14.304 20.192 14.016 20.32 13.728C20.448 13.44 20.512 13.12 20.512 12.768C20.512 12.192 20.384 11.712 20.128 11.36C19.84 10.976 19.52 10.688 19.104 10.464C18.688 10.272 18.208 10.112 17.728 10.016C17.216 9.952 16.736 9.92 16.288 9.92H11.84V22.08H16.512C17.088 22.08 17.632 22.016 18.176 21.888C18.72 21.76 19.2 21.536 19.616 21.248C20.032 20.96 20.352 20.576 20.608 20.096C20.864 19.648 20.992 19.104 20.992 18.464C20.992 18.048 20.896 17.664 20.768 17.312C20.608 16.992 20.416 16.704 20.16 16.448C19.904 16.192 19.584 16 19.264 15.84C18.912 15.712 18.528 15.584 18.144 15.552ZM14.592 11.936H15.616C15.84 11.936 16.064 11.936 16.32 11.968C16.544 12 16.768 12.064 16.96 12.16C17.152 12.256 17.312 12.416 17.44 12.576C17.536 12.768 17.6 12.992 17.6 13.28C17.6 13.536 17.568 13.76 17.472 13.984C17.376 14.176 17.216 14.336 17.056 14.464C16.896 14.592 16.704 14.656 16.48 14.72C16.256 14.784 16.032 14.816 15.776 14.816H14.592V11.936ZM16.064 20.064H14.592V16.864H16.064C16.32 16.864 16.576 16.896 16.832 16.928C17.056 16.992 17.28 17.088 17.472 17.184C17.664 17.312 17.824 17.472 17.952 17.664C18.048 17.888 18.112 18.144 18.112 18.432C18.112 18.72 18.048 18.976 17.952 19.168C17.824 19.392 17.664 19.552 17.472 19.68C17.312 19.808 17.088 19.936 16.832 20C16.576 20.032 16.352 20.064 16.064 20.064Z" fill="white"/>
</svg>
