<svg width="32" height="32" viewBox="0 0 32 32" fill="none" xmlns="http://www.w3.org/2000/svg">
<path fill-rule="evenodd" clip-rule="evenodd" d="M16 29.984C17.28 29.984 18.528 29.824 19.712 29.504C20.896 29.152 22.016 28.704 23.04 28.096C24.096 27.488 25.024 26.752 25.888 25.888C26.752 25.024 27.488 24.096 28.096 23.04C28.704 22.016 29.152 20.896 29.504 19.712C29.824 18.528 30.016 17.28 30.016 16C30.016 14.72 29.824 13.472 29.504 12.288C29.152 11.104 28.704 9.984 28.096 8.96C27.488 7.904 26.752 6.976 25.888 6.112C25.024 5.248 24.096 4.512 23.04 3.904C22.016 3.296 20.896 2.848 19.712 2.496C18.528 2.176 17.28 1.984 16 1.984C14.72 1.984 13.472 2.176 12.288 2.496C11.104 2.848 9.984 3.296 8.96 3.904C7.904 4.512 6.976 5.248 6.112 6.112C5.248 6.976 4.512 7.904 3.904 8.96C3.296 9.984 2.848 11.104 2.496 12.288C2.176 13.472 2.016 14.72 2.016 16C2.016 17.28 2.176 18.528 2.496 19.712C2.848 20.896 3.296 22.016 3.904 23.04C4.512 24.096 5.248 25.024 6.112 25.888C6.976 26.752 7.904 27.488 8.96 28.096C9.984 28.704 11.104 29.152 12.288 29.504C13.472 29.824 14.72 29.984 16 29.984ZM18.144 15.52V15.552C18.528 15.584 18.912 15.712 19.264 15.84C19.584 16 19.904 16.192 20.16 16.448C20.416 16.704 20.608 16.992 20.768 17.312C20.896 17.664 20.992 18.048 20.992 18.464C20.992 19.104 20.864 19.648 20.608 20.096C20.352 20.576 20.032 20.96 19.616 21.248C19.2 21.536 18.72 21.76 18.176 21.888C17.632 22.016 17.088 22.08 16.512 22.08H11.84V9.92H16.288C16.736 9.92 17.216 9.952 17.728 10.016C18.208 10.112 18.688 10.272 19.104 10.464C19.52 10.688 19.84 10.976 20.128 11.36C20.384 11.712 20.512 12.192 20.512 12.768C20.512 13.12 20.448 13.44 20.32 13.728C20.192 14.016 20 14.304 19.808 14.528C19.584 14.752 19.328 14.976 19.04 15.136C18.752 15.296 18.464 15.424 18.144 15.52Z" fill="white"/>
<path fill-rule="evenodd" clip-rule="evenodd" d="M20.256 0.576C18.88 0.192 17.472 0 16 0C14.528 0 13.088 0.192 11.744 0.576C10.368 0.96 9.088 1.472 7.904 2.176C6.72 2.88 5.664 3.712 4.672 4.672C3.712 5.664 2.88 6.72 2.176 7.904C1.472 9.088 0.96 10.368 0.576 11.744C0.192 13.088 0 14.528 0 16C0 17.472 0.192 18.912 0.576 20.256C0.96 21.632 1.472 22.912 2.176 24.096C2.88 25.28 3.712 26.336 4.672 27.328C5.664 28.288 6.72 29.12 7.904 29.824C9.088 30.528 10.368 31.04 11.744 31.424C13.088 31.808 14.528 32 16 32C17.472 32 18.912 31.808 20.256 31.424C21.632 31.04 22.912 30.528 24.096 29.824C25.28 29.12 26.336 28.288 27.328 27.328C28.288 26.336 29.12 25.28 29.824 24.096C30.528 22.912 31.04 21.632 31.424 20.256C31.808 18.912 32 17.472 32 16C32 14.528 31.808 13.12 31.424 11.744C31.04 10.4 30.496 9.12 29.824 7.936C29.12 6.752 28.288 5.664 27.296 4.704C26.336 3.712 25.248 2.88 24.064 2.176C22.88 1.504 21.6 0.96 20.256 0.576ZM19.712 29.504C18.528 29.824 17.28 29.984 16 29.984C14.72 29.984 13.472 29.824 12.288 29.504C11.104 29.152 9.984 28.704 8.96 28.096C7.904 27.488 6.976 26.752 6.112 25.888C5.248 25.024 4.512 24.096 3.904 23.04C3.296 22.016 2.848 20.896 2.496 19.712C2.176 18.528 2.016 17.28 2.016 16C2.016 14.72 2.176 13.472 2.496 12.288C2.848 11.104 3.296 9.984 3.904 8.96C4.512 7.904 5.248 6.976 6.112 6.112C6.976 5.248 7.904 4.512 8.96 3.904C9.984 3.296 11.104 2.848 12.288 2.496C13.472 2.176 14.72 1.984 16 1.984C17.28 1.984 18.528 2.176 19.712 2.496C20.896 2.848 22.016 3.296 23.04 3.904C24.096 4.512 25.024 5.248 25.888 6.112C26.752 6.976 27.488 7.904 28.096 8.96C28.704 9.984 29.152 11.104 29.504 12.288C29.824 13.472 30.016 14.72 30.016 16C30.016 17.28 29.824 18.528 29.504 19.712C29.152 20.896 28.704 22.016 28.096 23.04C27.488 24.096 26.752 25.024 25.888 25.888C25.024 26.752 24.096 27.488 23.04 28.096C22.016 28.704 20.896 29.152 19.712 29.504Z" fill="white"/>
<path d="M14.592 11.936H15.616C15.84 11.936 16.064 11.936 16.32 11.968C16.544 12 16.768 12.064 16.96 12.16C17.152 12.256 17.312 12.416 17.44 12.576C17.536 12.768 17.6 12.992 17.6 13.28C17.6 13.536 17.568 13.76 17.472 13.984C17.376 14.176 17.216 14.336 17.056 14.464C16.896 14.592 16.704 14.656 16.48 14.72C16.256 14.784 16.032 14.816 15.776 14.816H14.592V11.936Z" fill="white"/>
<path d="M16.064 20.064H14.592V16.864H16.064C16.32 16.864 16.576 16.896 16.832 16.928C17.056 16.992 17.28 17.088 17.472 17.184C17.664 17.312 17.824 17.472 17.952 17.664C18.048 17.888 18.112 18.144 18.112 18.432C18.112 18.72 18.048 18.976 17.952 19.168C17.824 19.392 17.664 19.552 17.472 19.68C17.312 19.808 17.088 19.936 16.832 20C16.576 20.032 16.352 20.064 16.064 20.064Z" fill="white"/>
</svg>
