<svg width="32" height="32" viewBox="0 0 32 32" fill="none" xmlns="http://www.w3.org/2000/svg">
<path d="M27.008 7.46221C27.168 7.62209 27.328 7.78198 27.488 7.97384C27.648 8.13372 27.776 8.35756 27.904 8.54942C28.256 9.25291 28.576 9.98837 28.896 10.7238C29.216 11.4593 29.504 12.1948 29.824 12.9302C30.208 13.8895 30.56 14.8808 30.912 15.8401C31.264 16.8314 31.52 17.8227 31.712 18.8459C31.808 19.3256 31.872 19.7733 31.936 20.2209C31.968 20.7006 32 21.1483 32 21.6279C32 22.2355 31.936 22.843 31.808 23.4186C31.648 24.0262 31.424 24.5698 31.104 25.0814C30.944 25.3052 30.752 25.5291 30.528 25.7849C30.272 26.0087 30.048 26.2006 29.76 26.3924C29.472 26.5523 29.184 26.7122 28.896 26.8081C28.576 26.936 28.288 27 28 27C27.68 27 27.328 26.8401 26.912 26.5843C26.528 26.2965 26.112 25.9448 25.728 25.561C25.312 25.1773 24.96 24.7936 24.608 24.3779C24.256 23.9622 23.968 23.6424 23.776 23.4186C23.552 23.1628 23.296 22.875 23.04 22.5552C22.784 22.2355 22.528 21.9797 22.24 21.7878L21.856 21.532C21.664 21.3721 21.44 21.2762 21.184 21.2122C20.96 21.1163 20.736 21.0843 20.48 21.0523C20.224 21.0203 20 20.9884 19.744 20.9884C19.488 20.9884 19.232 20.9884 19.008 20.9884H12.992C12.768 20.9884 12.512 20.9884 12.256 20.9884C12 20.9884 11.776 21.0203 11.52 21.0523C11.264 21.0843 11.04 21.1163 10.816 21.2122C10.56 21.2762 10.336 21.3721 10.144 21.532L9.76 21.7878C9.472 22.0116 9.216 22.2674 8.96 22.5552C8.704 22.875 8.448 23.1628 8.224 23.4186C8 23.6424 7.744 23.9622 7.392 24.3779C7.04 24.7936 6.688 25.1773 6.272 25.561C5.888 25.9448 5.472 26.2965 5.088 26.5843C4.672 26.8401 4.32 27 4 27C3.712 27 3.424 26.936 3.104 26.8081C2.816 26.7122 2.528 26.5523 2.24 26.3924C1.952 26.2006 1.728 26.0087 1.472 25.7849C1.248 25.5291 1.056 25.3052 0.896 25.0814C0.576 24.5698 0.352 23.9942 0.192 23.4186C0.064 22.843 0 22.2355 0 21.6279C0 21.1483 0.032 20.7006 0.064 20.2209C0.128 19.7733 0.192 19.3256 0.288 18.8459C0.352 18.3663 0.48 17.8547 0.64 17.2791C0.8 16.7355 0.992 16.1279 1.216 15.5203C1.408 14.9128 1.632 14.2733 1.888 13.6337C2.112 12.9942 2.368 12.3866 2.624 11.7791C2.88 11.1715 3.136 10.5959 3.392 10.0523C3.648 9.50872 3.872 9.02907 4.096 8.58139C4.224 8.35756 4.352 8.1657 4.512 7.97384C4.672 7.81395 4.832 7.62209 4.992 7.46221V7.07849C4.992 6.95058 5.024 6.85465 5.024 6.72674C5.056 6.63081 5.12 6.53488 5.184 6.40698C5.248 6.31105 5.344 6.21512 5.472 6.15116C5.6 6.08721 5.792 5.99128 6.048 5.89535C6.304 5.8314 6.56 5.73546 6.848 5.63953C7.136 5.5436 7.424 5.47965 7.68 5.4157C7.968 5.35174 8.16 5.28779 8.32 5.25581C8.704 5.15988 9.12 5.09593 9.504 5.06395C9.92 5.03198 10.336 5 10.72 5C10.88 5 11.04 5 11.232 5.03198C11.424 5.03198 11.616 5.09593 11.744 5.15988H11.776C12 5.28779 12.224 5.4157 12.48 5.57558C12.704 5.70349 12.928 5.83139 13.184 5.9593H18.816C19.072 5.83139 19.264 5.70349 19.456 5.57558C19.648 5.47965 19.808 5.38372 20 5.28779C20.16 5.19186 20.352 5.12791 20.544 5.09593C20.768 5.03198 20.992 5 21.28 5C21.664 5 22.08 5.03198 22.496 5.06395C22.88 5.09593 23.296 5.15988 23.68 5.25581C23.84 5.28779 24.032 5.35174 24.32 5.4157C24.576 5.47965 24.864 5.5436 25.152 5.63953C25.44 5.73546 25.696 5.8314 25.952 5.89535C26.208 5.99128 26.4 6.08721 26.528 6.15116C26.784 6.31105 26.912 6.53488 26.944 6.72674C26.976 6.95058 27.008 7.2064 27.008 7.46221ZM28.064 24.9535C28.448 24.8576 28.768 24.6977 29.024 24.4738C29.28 24.218 29.472 23.9622 29.6 23.6424C29.76 23.3547 29.856 23.0349 29.92 22.6831C29.984 22.3314 30.016 21.9797 30.016 21.6279C30.016 21.2442 29.984 20.8285 29.952 20.4128C29.888 19.9971 29.824 19.5814 29.76 19.1977C29.536 18.1105 29.248 17.0233 28.832 15.936C28.448 14.8808 28.032 13.8256 27.584 12.8023C27.36 12.2267 27.104 11.6831 26.88 11.1076C26.656 10.532 26.4 9.98837 26.112 9.44477C26.016 9.31686 25.92 9.18895 25.792 9.09302C25.664 8.99709 25.536 8.90116 25.44 8.80523C25.312 8.7093 25.216 8.61337 25.12 8.48546C25.056 8.38953 24.992 8.19767 24.992 8.00581V7.68605C24.416 7.49419 23.808 7.30233 23.2 7.2064C22.592 7.07849 21.984 7.01454 21.344 7.01454H21.184C21.12 7.01454 21.056 7.01454 20.992 7.01454C20.608 7.23837 20.32 7.43023 20.096 7.55814C19.904 7.68605 19.712 7.78198 19.52 7.84593C19.36 7.90988 19.168 7.94186 18.944 7.94186C18.72 7.94186 18.4 7.97384 17.984 7.97384H14.016C13.6 7.97384 13.28 7.94186 13.056 7.94186C12.832 7.94186 12.64 7.90988 12.48 7.84593C12.288 7.78198 12.096 7.68605 11.904 7.55814C11.68 7.43023 11.392 7.23837 11.008 7.01454C10.944 7.01454 10.88 7.01454 10.816 7.01454H10.656C10.016 7.01454 9.408 7.07849 8.8 7.2064C8.192 7.30233 7.584 7.49419 7.008 7.68605C7.008 7.97384 6.976 8.22965 6.912 8.38953C6.88 8.54942 6.72 8.74128 6.464 8.90116C6.336 8.96512 6.24 9.02907 6.144 9.125C6.048 9.22093 5.952 9.34884 5.888 9.44477C5.6 9.98837 5.344 10.532 5.12 11.1076C4.896 11.6831 4.64 12.2267 4.416 12.8023C3.968 13.8256 3.552 14.8808 3.168 15.936C2.752 17.0233 2.464 18.1105 2.24 19.1977C2.176 19.5814 2.112 19.9971 2.048 20.4128C2.016 20.8285 2.016 21.2442 2.016 21.6279C2.016 21.9797 2.016 22.3314 2.08 22.6831C2.144 23.0349 2.24 23.3547 2.4 23.6424C2.528 23.9622 2.72 24.218 2.976 24.4419C3.232 24.6977 3.52 24.8576 3.904 24.9535C4.064 24.8576 4.256 24.6977 4.544 24.4419C4.8 24.218 5.056 23.9302 5.344 23.6424C5.632 23.3547 5.888 23.0669 6.144 22.7791C6.4 22.4913 6.592 22.2674 6.72 22.0756C6.848 21.9797 6.976 21.8198 7.136 21.6279C7.328 21.436 7.488 21.2122 7.68 21.0203C7.872 20.8285 8.064 20.6366 8.256 20.4448C8.416 20.2849 8.576 20.157 8.704 20.061L8.992 19.9012C9.28 19.6773 9.6 19.4855 9.92 19.3895C10.24 19.2616 10.56 19.1657 10.912 19.1017C11.264 19.0698 11.584 19.0058 11.936 19.0058C12.288 18.9738 12.64 18.9738 12.992 18.9738H19.008C19.36 18.9738 19.712 18.9738 20.064 19.0058C20.416 19.0058 20.736 19.0698 21.088 19.1017C21.44 19.1657 21.76 19.2616 22.08 19.3895C22.4 19.4855 22.72 19.6773 23.008 19.9012L23.296 20.061C23.424 20.157 23.584 20.2849 23.744 20.4448C23.936 20.6366 24.128 20.8285 24.32 21.0203C24.512 21.2122 24.672 21.436 24.864 21.6279C25.024 21.8198 25.152 21.9797 25.28 22.0756C25.408 22.2674 25.632 22.4913 25.856 22.7791C26.112 23.0669 26.368 23.3547 26.624 23.6424C26.912 23.8983 27.168 24.186 27.424 24.4099C27.68 24.6657 27.904 24.8576 28.064 24.9535ZM16 9.95639C16.256 9.95639 16.512 10.0843 16.704 10.2762C16.896 10.468 16.992 10.6919 16.992 10.9797C16.992 11.2355 16.896 11.4913 16.704 11.6831C16.512 11.875 16.256 11.9709 16 11.9709C15.744 11.9709 15.488 11.875 15.296 11.6831C15.104 11.4913 15.008 11.2355 15.008 10.9797C15.008 10.6919 15.104 10.468 15.296 10.2762C15.488 10.0843 15.744 9.95639 16 9.95639Z" fill="white"/>
<circle cx="16" cy="12" r="2" fill="white"/>
</svg>
