<svg width="32" height="32" viewBox="0 0 32 32" fill="none" xmlns="http://www.w3.org/2000/svg">
<path d="M12.6464 3.64645C12.5034 3.78945 12.4607 4.0045 12.5381 4.19134C12.6155 4.37818 12.7978 4.5 13 4.5L19 4.5C19.2022 4.5 19.3845 4.37818 19.4619 4.19134C19.5393 4.0045 19.4966 3.78945 19.3536 3.64645L16.3536 0.646447C16.1583 0.451184 15.8417 0.451184 15.6464 0.646447L12.6464 3.64645Z" fill="white" stroke="white" stroke-linejoin="round"/>
<path d="M25 12.4144V19.6144H19.5856V25H12.3856V19.6144H7V12.4144H12.3856V7H19.5856V12.4144H25ZM23.1856 17.8V14.2H17.8V8.8144H14.2V14.2H8.7856V17.8H14.2V23.2144H17.8V17.8H23.1856Z" fill="white"/>
<path d="M12.6464 28.3536C12.5034 28.2106 12.4607 27.9955 12.5381 27.8087C12.6155 27.6218 12.7978 27.5 13 27.5L19 27.5C19.2022 27.5 19.3845 27.6218 19.4619 27.8087C19.5393 27.9955 19.4966 28.2106 19.3536 28.3536L16.3536 31.3536C16.1583 31.5488 15.8417 31.5488 15.6464 31.3536L12.6464 28.3536Z" fill="white" stroke="white" stroke-linejoin="round"/>
</svg>
