<svg width="32" height="32" viewBox="0 0 32 32" fill="none" xmlns="http://www.w3.org/2000/svg">
<path fill-rule="evenodd" clip-rule="evenodd" d="M0 9V10.5455V23C0 25.2091 1.79086 27 4 27H28C30.2091 27 32 25.2091 32 23V13C32 10.7909 30.2091 9 28 9H21.8329C20.6691 9 19.5631 8.49319 18.8032 7.61176L17.7485 6.38824C16.9886 5.50681 15.8826 5 14.7188 5H4C1.79086 5 0 6.79086 0 9ZM6.60369 21H4.75852V12.2727H8.2017C10.1832 12.2727 11.3295 13.4957 11.3295 15.2301C11.3295 16.973 10.1619 18.1705 8.15483 18.1705H6.60369V21ZM6.60369 13.7812V16.6918H7.85653C8.91335 16.6918 9.42898 16.0952 9.42898 15.2301C9.42898 14.3608 8.91335 13.7812 7.84801 13.7812H6.60369ZM19.0607 18.5497C19.065 20.0412 17.663 21.1193 15.7028 21.1193C13.7852 21.1193 12.4215 20.0582 12.3917 18.5327H14.2496C14.2837 19.1719 14.8931 19.598 15.707 19.598C16.5508 19.598 17.1474 19.1207 17.1431 18.4261C17.1474 17.723 16.5295 17.2287 15.5408 17.2287H14.7269V15.8736H15.5408C16.3803 15.8736 16.9641 15.4091 16.9599 14.723C16.9641 14.0668 16.4656 13.6151 15.7198 13.6151C14.9656 13.6151 14.3562 14.0455 14.3349 14.7102H12.5664C12.592 13.2017 13.9386 12.1534 15.7283 12.1534C17.5352 12.1534 18.7411 13.2358 18.7369 14.6122C18.7411 15.5923 18.0678 16.2827 17.092 16.4574V16.5256C18.3746 16.6875 19.065 17.4631 19.0607 18.5497Z" fill="white"/>
</svg>
