<svg width="32" height="32" viewBox="0 0 32 32" fill="none" xmlns="http://www.w3.org/2000/svg">
<path d="M1 10.5455V9C1 7.34315 2.34315 6 4 6H14.7188C15.5916 6 16.4212 6.38011 16.9911 7.04118L18.0458 8.2647C18.9956 9.36649 20.3782 10 21.8329 10H28C29.6569 10 31 11.3431 31 13V23C31 24.6569 29.6569 26 28 26H4C2.34315 26 1 24.6569 1 23V10.5455Z" stroke="white" stroke-width="2"/>
<path d="M4.75852 21H6.60369V18.1705H8.15483C10.1619 18.1705 11.3295 16.973 11.3295 15.2301C11.3295 13.4957 10.1832 12.2727 8.2017 12.2727H4.75852V21ZM6.60369 16.6918V13.7812H7.84801C8.91335 13.7812 9.42898 14.3608 9.42898 15.2301C9.42898 16.0952 8.91335 16.6918 7.85653 16.6918H6.60369ZM15.7028 21.1193C17.663 21.1193 19.065 20.0412 19.0607 18.5497C19.065 17.4631 18.3746 16.6875 17.092 16.5256V16.4574C18.0678 16.2827 18.7411 15.5923 18.7369 14.6122C18.7411 13.2358 17.5352 12.1534 15.7283 12.1534C13.9386 12.1534 12.592 13.2017 12.5664 14.7102H14.3349C14.3562 14.0455 14.9656 13.6151 15.7198 13.6151C16.4656 13.6151 16.9641 14.0668 16.9599 14.723C16.9641 15.4091 16.3803 15.8736 15.5408 15.8736H14.7269V17.2287H15.5408C16.5295 17.2287 17.1474 17.723 17.1431 18.4261C17.1474 19.1207 16.5508 19.598 15.707 19.598C14.8931 19.598 14.2837 19.1719 14.2496 18.5327H12.3917C12.4215 20.0582 13.7852 21.1193 15.7028 21.1193Z" fill="white"/>
</svg>
