<svg width="32" height="32" viewBox="0 0 32 32" fill="none" xmlns="http://www.w3.org/2000/svg">
<path fill-rule="evenodd" clip-rule="evenodd" d="M0 23V21.4545V9C0 6.79086 1.79086 5 4 5H28C30.2091 5 32 6.79086 32 9V19C32 21.2091 30.2091 23 28 23H21.8329C20.6691 23 19.5631 23.5068 18.8032 24.3882L17.7485 25.6118C16.9886 26.4932 15.8826 27 14.7188 27H4C1.79086 27 0 25.2091 0 23ZM6.60369 19H4.75852V10.2727H8.2017C10.1832 10.2727 11.3295 11.4957 11.3295 13.2301C11.3295 14.973 10.1619 16.1705 8.15483 16.1705H6.60369V19ZM6.60369 11.7812V14.6918H7.85653C8.91335 14.6918 9.42898 14.0952 9.42898 13.2301C9.42898 12.3608 8.91335 11.7812 7.84801 11.7812H6.60369ZM16.5337 17.4659H12.3448V16.0128L15.9883 10.2727H18.2979V15.9872H19.3803V17.4659H18.2979V19H16.5337V17.4659ZM14.2028 15.9872H16.5678V12.2841H16.4996L14.2028 15.919V15.9872Z" fill="white"/>
</svg>
