<svg width="32" height="32" viewBox="0 0 32 32" fill="none" xmlns="http://www.w3.org/2000/svg">
<path d="M1 21.4545V23C1 24.6569 2.34315 26 4 26H14.7188C15.5916 26 16.4212 25.6199 16.9911 24.9588L18.0458 23.7353C18.9956 22.6335 20.3782 22 21.8329 22H28C29.6569 22 31 20.6569 31 19V9C31 7.34315 29.6569 6 28 6H4C2.34315 6 1 7.34315 1 9V21.4545Z" stroke="white" stroke-width="2"/>
<path d="M4.75852 19H6.60369V16.1705H8.15483C10.1619 16.1705 11.3295 14.973 11.3295 13.2301C11.3295 11.4957 10.1832 10.2727 8.2017 10.2727H4.75852V19ZM6.60369 14.6918V11.7812H7.84801C8.91335 11.7812 9.42898 12.3608 9.42898 13.2301C9.42898 14.0952 8.91335 14.6918 7.85653 14.6918H6.60369ZM12.3448 17.4659H16.5337V19H18.2979V17.4659H19.3803V15.9872H18.2979V10.2727H15.9883L12.3448 16.0128V17.4659ZM16.5678 15.9872H14.2028V15.919L16.4996 12.2841H16.5678V15.9872Z" fill="white"/>
</svg>
