<svg width="32" height="32" viewBox="0 0 32 32" fill="none" xmlns="http://www.w3.org/2000/svg">
<path d="M1 21.4545V23C1 24.6569 2.34315 26 4 26H14.7188C15.5916 26 16.4212 25.6199 16.9911 24.9588L18.0458 23.7353C18.9956 22.6335 20.3782 22 21.8329 22H28C29.6569 22 31 20.6569 31 19V9C31 7.34315 29.6569 6 28 6H4C2.34315 6 1 7.34315 1 9V21.4545Z" stroke="white" stroke-width="2"/>
<path d="M4.75852 19H6.60369V16.1705H8.15483C10.1619 16.1705 11.3295 14.973 11.3295 13.2301C11.3295 11.4957 10.1832 10.2727 8.2017 10.2727H4.75852V19ZM6.60369 14.6918V11.7812H7.84801C8.91335 11.7812 9.42898 12.3608 9.42898 13.2301C9.42898 14.0952 8.91335 14.6918 7.85653 14.6918H6.60369ZM12.4769 19H18.6985V17.4915H15.0337V17.4318L16.3079 16.1832C18.1019 14.5469 18.5835 13.7287 18.5835 12.7358C18.5835 11.223 17.3477 10.1534 15.4769 10.1534C13.6445 10.1534 12.3874 11.2486 12.3917 12.9616H14.1431C14.1388 12.1264 14.6673 11.6151 15.4641 11.6151C16.2312 11.6151 16.8022 12.0923 16.8022 12.8594C16.8022 13.554 16.3761 14.0312 15.5835 14.794L12.4769 17.6705V19Z" fill="white"/>
</svg>
