<svg width="32" height="32" viewBox="0 0 32 32" fill="none" xmlns="http://www.w3.org/2000/svg">
<path fill-rule="evenodd" clip-rule="evenodd" d="M0 23V21.4545V9C0 6.79086 1.79086 5 4 5H28C30.2091 5 32 6.79086 32 9V19C32 21.2091 30.2091 23 28 23H21.8329C20.6691 23 19.5631 23.5068 18.8032 24.3882L17.7485 25.6118C16.9886 26.4932 15.8826 27 14.7188 27H4C1.79086 27 0 25.2091 0 23ZM6.60369 19H4.75852V10.2727H8.2017C10.1832 10.2727 11.3295 11.4957 11.3295 13.2301C11.3295 14.973 10.1619 16.1705 8.15483 16.1705H6.60369V19ZM6.60369 11.7812V14.6918H7.85653C8.91335 14.6918 9.42898 14.0952 9.42898 13.2301C9.42898 12.3608 8.91335 11.7812 7.84801 11.7812H6.60369ZM18.6985 19H12.4769V17.6705L15.5835 14.794C16.3761 14.0312 16.8022 13.554 16.8022 12.8594C16.8022 12.0923 16.2312 11.6151 15.4641 11.6151C14.6673 11.6151 14.1388 12.1264 14.1431 12.9616H12.3917C12.3874 11.2486 13.6445 10.1534 15.4769 10.1534C17.3477 10.1534 18.5835 11.223 18.5835 12.7358C18.5835 13.7287 18.1019 14.5469 16.3079 16.1832L15.0337 17.4318V17.4915H18.6985V19Z" fill="white"/>
</svg>
