<svg width="32" height="32" viewBox="0 0 32 32" fill="none" xmlns="http://www.w3.org/2000/svg">
<path fill-rule="evenodd" clip-rule="evenodd" d="M0 9V10.5455V23C0 25.2091 1.79086 27 4 27H28C30.2091 27 32 25.2091 32 23V13C32 10.7909 30.2091 9 28 9H21.8329C20.6691 9 19.5631 8.49319 18.8032 7.61176L17.7485 6.38824C16.9886 5.50681 15.8826 5 14.7188 5H4C1.79086 5 0 6.79086 0 9ZM6.60369 21H4.75852V12.2727H8.2017C10.1832 12.2727 11.3295 13.4957 11.3295 15.2301C11.3295 16.973 10.1619 18.1705 8.15483 18.1705H6.60369V21ZM6.60369 13.7812V16.6918H7.85653C8.91335 16.6918 9.42898 16.0952 9.42898 15.2301C9.42898 14.3608 8.91335 13.7812 7.84801 13.7812H6.60369ZM14.5394 12.2727H16.2738V21H14.4286V14.0241H14.3775L12.3789 15.277V13.6406L14.5394 12.2727Z" fill="white"/>
</svg>
