<svg width="32" height="32" viewBox="0 0 32 32" fill="none" xmlns="http://www.w3.org/2000/svg">
<path d="M1 10.5455V9C1 7.34315 2.34315 6 4 6H14.7188C15.5916 6 16.4212 6.38011 16.9911 7.04118L18.0458 8.2647C18.9956 9.36649 20.3782 10 21.8329 10H28C29.6569 10 31 11.3431 31 13V23C31 24.6569 29.6569 26 28 26H4C2.34315 26 1 24.6569 1 23V10.5455Z" stroke="white" stroke-width="2"/>
<path d="M4.75852 21H6.60369V18.1705H8.15483C10.1619 18.1705 11.3295 16.973 11.3295 15.2301C11.3295 13.4957 10.1832 12.2727 8.2017 12.2727H4.75852V21ZM6.60369 16.6918V13.7812H7.84801C8.91335 13.7812 9.42898 14.3608 9.42898 15.2301C9.42898 16.0952 8.91335 16.6918 7.85653 16.6918H6.60369ZM16.2738 12.2727H14.5394L12.3789 13.6406V15.277L14.3775 14.0241H14.4286V21H16.2738V12.2727Z" fill="white"/>
</svg>
