<svg width="32" height="32" viewBox="0 0 32 32" fill="none" xmlns="http://www.w3.org/2000/svg">
<path d="M28.3536 12.6464C28.2106 12.5034 27.9955 12.4607 27.8087 12.5381C27.6218 12.6155 27.5 12.7978 27.5 13L27.5 19C27.5 19.2022 27.6218 19.3845 27.8087 19.4619C27.9955 19.5393 28.2106 19.4966 28.3536 19.3536L31.3536 16.3536C31.5488 16.1583 31.5488 15.8417 31.3536 15.6464L28.3536 12.6464Z" fill="white" stroke="white" stroke-linejoin="round"/>
<path d="M3.64645 12.6464C3.78945 12.5034 4.0045 12.4607 4.19134 12.5381C4.37818 12.6155 4.5 12.7978 4.5 13L4.5 19C4.5 19.2022 4.37818 19.3845 4.19134 19.4619C4.0045 19.5393 3.78945 19.4966 3.64645 19.3536L0.646446 16.3536C0.451184 16.1583 0.451184 15.8417 0.646446 15.6464L3.64645 12.6464Z" fill="white" stroke="white" stroke-linejoin="round"/>
<circle cx="16" cy="16" r="9" stroke="white" stroke-width="2"/>
<path d="M16 9C12.1333 9 9 12.1333 9 16C9 19.8667 12.1333 23 16 23C19.8667 23 23 19.8667 23 16C23 12.1333 19.8667 9 16 9ZM18.3333 19.9667H13.6V12.0333H15.4V18.5333H18.3333V19.9667Z" fill="white"/>
</svg>
