<svg width="32" height="32" viewBox="0 0 32 32" fill="none" xmlns="http://www.w3.org/2000/svg">
<path d="M12.6464 3.64645C12.5034 3.78945 12.4607 4.0045 12.5381 4.19134C12.6155 4.37818 12.7978 4.5 13 4.5L19 4.5C19.2022 4.5 19.3845 4.37818 19.4619 4.19134C19.5393 4.0045 19.4966 3.78945 19.3536 3.64645L16.3536 0.646447C16.1583 0.451184 15.8417 0.451184 15.6464 0.646447L12.6464 3.64645Z" fill="white" stroke="white" stroke-linejoin="round"/>
<path d="M12.6464 28.3536C12.5034 28.2106 12.4607 27.9955 12.5381 27.8087C12.6155 27.6218 12.7978 27.5 13 27.5L19 27.5C19.2022 27.5 19.3845 27.6218 19.4619 27.8087C19.5393 27.9955 19.4966 28.2106 19.3536 28.3536L16.3536 31.3536C16.1583 31.5488 15.8417 31.5488 15.6464 31.3536L12.6464 28.3536Z" fill="white" stroke="white" stroke-linejoin="round"/>
<path d="M15.4 13.3667H14.6V15.5667H15.3666C15.7666 15.5667 16.0666 15.4667 16.3 15.2333C16.5333 15 16.6666 14.7333 16.6666 14.4C16.6333 13.7 16.2333 13.3667 15.4 13.3667Z" fill="white"/>
<path d="M16 9C12.1333 9 9 12.1333 9 16C9 19.8667 12.1333 23 16 23C19.8667 23 23 19.8667 23 16C23 12.1333 19.8667 9 16 9ZM17.4 19.9667L16.1667 17.9333C16.0667 17.7667 16 17.6333 15.9 17.5333C15.8 17.4 15.7333 17.3 15.6333 17.2333C15.5333 17.1333 15.4667 17.0667 15.3667 17.0333C15.2667 17 15.1667 16.9667 15.0667 16.9667H14.6V20H12.8V12.0333H15.6333C17.5667 12.0333 18.5333 12.7667 18.5333 14.2C18.5333 14.4667 18.5 14.7333 18.4 14.9667C18.3 15.2 18.2 15.4 18.0333 15.6C17.8667 15.8 17.7 15.9667 17.4667 16.1C17.2333 16.2333 17 16.3333 16.7333 16.4333V16.4667C16.8667 16.5 16.9667 16.5667 17.0667 16.6333C17.1667 16.7 17.3 16.8 17.4 16.9333C17.5 17.0333 17.6 17.1667 17.7 17.3C17.8 17.4333 17.8667 17.5667 17.9667 17.6667L19.4667 20H17.4V19.9667Z" fill="white"/>
<path d="M16 8C20.4 8 24 11.6 24 16C24 20.4 20.4 24 16 24C11.6 24 8 20.4 8 16C8 11.6 11.6 8 16 8ZM16 6C10.4667 6 6 10.4667 6 16C6 21.5333 10.4667 26 16 26C21.5333 26 26 21.5333 26 16C26 10.4667 21.5333 6 16 6Z" fill="white"/>
</svg>
