<svg width="32" height="32" viewBox="0 0 32 32" fill="none" xmlns="http://www.w3.org/2000/svg">
<path fill-rule="evenodd" clip-rule="evenodd" d="M30.016 7C30.24 7 30.496 7.064 30.72 7.192C30.976 7.288 31.2 7.448 31.36 7.64C31.552 7.832 31.712 8.056 31.84 8.28C31.936 8.536 32 8.76 32 9.016V13.016C32 13.272 31.936 13.496 31.84 13.752C31.712 13.976 31.552 14.2 31.36 14.392C31.2 14.584 30.976 14.744 30.72 14.84C30.496 14.968 30.24 15 30.016 15H24V25.016H8V15H2.016C1.76 15 1.504 14.968 1.28 14.84C1.024 14.744 0.8 14.584 0.64 14.392C0.448 14.2 0.288 13.976 0.16 13.752C0.064 13.496 0 13.272 0 13.016V9.016C0 8.76 0.064 8.536 0.16 8.28C0.288 8.056 0.448 7.832 0.64 7.64C0.8 7.448 1.024 7.288 1.28 7.192C1.504 7.064 1.76 7 2.016 7H30.016ZM19.616 18.072C19.872 17.592 20 17.08 20 16.504C20 15.96 19.904 15.48 19.68 15.032C19.456 14.616 19.136 14.232 18.752 13.944C18.4 13.624 17.952 13.4 17.472 13.24C16.992 13.08 16.512 13.016 16 13.016H12V23H14.016V20.024L15.52 20.056C15.744 20.056 15.936 20.056 16.16 20.024C16.352 20.024 16.576 19.992 16.768 19.96L18.016 23H20L18.496 19.288C18.976 18.968 19.328 18.584 19.616 18.072Z" fill="white"/>
<path d="M16 18.008C16.224 18.008 16.448 17.976 16.672 17.944C16.928 17.88 17.152 17.784 17.344 17.656C17.536 17.528 17.696 17.368 17.824 17.176C17.952 17.016 18.016 16.792 18.016 16.504C18.016 16.248 17.952 16.024 17.824 15.832C17.696 15.672 17.536 15.512 17.344 15.384C17.152 15.256 16.928 15.16 16.672 15.096C16.448 15.032 16.224 15 16 15H14.016V18.008H16Z" fill="white"/>
<path d="M12.6464 1.35355C12.5034 1.21055 12.4607 0.995495 12.5381 0.808658C12.6155 0.621821 12.7978 0.5 13 0.5L19 0.5C19.2022 0.5 19.3845 0.621821 19.4619 0.808659C19.5393 0.995496 19.4966 1.21055 19.3536 1.35355L16.3536 4.35355C16.1583 4.54882 15.8417 4.54882 15.6464 4.35355L12.6464 1.35355Z" fill="white" stroke="white" stroke-linejoin="round"/>
</svg>
