<svg width="32" height="32" viewBox="0 0 32 32" fill="none" xmlns="http://www.w3.org/2000/svg">
<path d="M16 8C20.4 8 24 11.6 24 16C24 20.4 20.4 24 16 24C11.6 24 8 20.4 8 16C8 11.6 11.6 8 16 8ZM16 6C10.4667 6 6 10.4667 6 16C6 21.5333 10.4667 26 16 26C21.5333 26 26 21.5333 26 16C26 10.4667 21.5333 6 16 6Z" fill="white"/>
<path d="M16 9C12.1333 9 9 12.1333 9 16C9 19.8667 12.1333 23 16 23C19.8667 23 23 19.8667 23 16C23 12.1333 19.8667 9 16 9ZM18.3333 19.9667H13.6V12.0333H15.4V18.5333H18.3333V19.9667Z" fill="white"/>
<path d="M12.6464 3.64645C12.5034 3.78945 12.4607 4.0045 12.5381 4.19134C12.6155 4.37818 12.7978 4.5 13 4.5L19 4.5C19.2022 4.5 19.3845 4.37818 19.4619 4.19134C19.5393 4.0045 19.4966 3.78945 19.3536 3.64645L16.3536 0.646447C16.1583 0.451184 15.8417 0.451184 15.6464 0.646447L12.6464 3.64645Z" fill="white" stroke="white" stroke-linejoin="round"/>
</svg>
