<svg width="32" height="32" viewBox="0 0 32 32" fill="none" xmlns="http://www.w3.org/2000/svg">
<path d="M16 8C20.4 8 24 11.6 24 16C24 20.4 20.4 24 16 24C11.6 24 8 20.4 8 16C8 11.6 11.6 8 16 8ZM16 6C10.4667 6 6 10.4667 6 16C6 21.5333 10.4667 26 16 26C21.5333 26 26 21.5333 26 16C26 10.4667 21.5333 6 16 6Z" fill="white"/>
<path d="M16 9C12.1333 9 9 12.1333 9 16C9 19.8667 12.1333 23 16 23C19.8667 23 23 19.8667 23 16C23 12.1333 19.8667 9 16 9ZM18.3333 19.9667H13.6V12.0333H15.4V18.5333H18.3333V19.9667Z" fill="white"/>
<path d="M12.6464 28.3536C12.5034 28.2106 12.4607 27.9955 12.5381 27.8087C12.6155 27.6218 12.7978 27.5 13 27.5L19 27.5C19.2022 27.5 19.3845 27.6218 19.4619 27.8087C19.5393 27.9955 19.4966 28.2106 19.3536 28.3536L16.3536 31.3536C16.1583 31.5488 15.8417 31.5488 15.6464 31.3536L12.6464 28.3536Z" fill="white" stroke="white" stroke-linejoin="round"/>
</svg>
