<svg width="32" height="32" viewBox="0 0 32 32" fill="none" xmlns="http://www.w3.org/2000/svg">
<path fill-rule="evenodd" clip-rule="evenodd" d="M11.976 29.984C13.64 29.984 15.24 29.856 16.712 29.536C18.184 29.216 19.56 28.768 20.84 28.16C22.088 27.552 23.208 26.784 24.232 25.888C25.224 24.96 26.088 23.936 26.792 22.72C27.496 21.536 28.04 20.224 28.424 18.752C28.808 17.312 29 15.712 29 13.984C29 12.48 28.936 10.976 28.808 9.44C28.712 7.936 28.552 6.432 28.328 4.896C28.264 4.64 28.232 4.352 28.2 4.064C28.168 3.744 28.104 3.488 28.008 3.232C27.944 2.976 27.752 2.784 27.528 2.624C27.272 2.464 27.016 2.336 26.696 2.24C26.408 2.144 26.088 2.08 25.768 2.048C25.48 2.016 25.192 1.984 25 1.984H6.984C6.824 1.984 6.664 2.016 6.44 2.08C6.216 2.144 6.024 2.208 5.832 2.304C5.608 2.4 5.448 2.496 5.288 2.624C5.128 2.752 5.032 2.912 5 3.072C4.968 3.072 4.968 3.136 4.968 3.2V3.328C4.968 3.808 5.032 4.256 5.16 4.704C5.288 5.152 5.416 5.6 5.576 6.016L5.64 6.272C5.864 6.944 6.056 7.584 6.216 8.192C6.23207 8.25626 6.24813 8.3202 6.26413 8.38388C6.40749 8.95442 6.54564 9.50426 6.632 10.08C6.76 10.72 6.856 11.36 6.888 12C6.952 12.64 6.984 13.312 6.984 13.984C6.984 15.232 6.92 16.416 6.76 17.504C6.632 18.624 6.44 19.712 6.152 20.768C5.864 21.856 5.544 22.88 5.128 23.936C4.744 24.992 4.264 26.048 3.752 27.136C3.72 27.232 3.656 27.36 3.56 27.52C3.50348 27.6142 3.45806 27.7195 3.41066 27.8293C3.37755 27.9061 3.34348 27.985 3.304 28.064C3.208 28.256 3.144 28.448 3.08 28.64C3.016 28.8 2.984 28.928 2.984 28.992C2.984 29.12 3.08 29.248 3.24 29.376C3.27081 29.3945 3.30281 29.4142 3.33599 29.4346C3.47513 29.5201 3.63513 29.6185 3.816 29.696C4.04 29.792 4.264 29.856 4.488 29.92C4.712 29.984 4.872 29.984 5 29.984H11.976ZM17 17.984H13V9.984H10.984V20H17V17.984ZM25 9.984H17V12H19.976V20H21.992V12H25V9.984Z" fill="white"/>
<path fill-rule="evenodd" clip-rule="evenodd" d="M25 0C25.48 0 25.992 0.0320003 26.504 0.128C27.016 0.224 27.496 0.384 27.976 0.576C28.424 0.8 28.84 1.088 29.192 1.44C29.544 1.792 29.8 2.24 29.96 2.752C30.088 3.264 30.216 3.776 30.28 4.32C30.3227 4.7039 30.3653 5.05938 30.408 5.41484C30.4293 5.59271 30.4507 5.77058 30.472 5.952C30.824 8.608 30.984 11.296 30.984 13.984C30.984 15.904 30.76 17.696 30.344 19.328C29.928 20.96 29.32 22.432 28.52 23.776C27.752 25.088 26.792 26.272 25.64 27.296C24.52 28.32 23.272 29.184 21.864 29.888C20.456 30.56 18.92 31.104 17.256 31.456C15.592 31.808 13.832 32 11.976 32H5C4.584 32 4.136 31.936 3.688 31.776C3.208 31.648 2.792 31.456 2.376 31.2C1.992 30.944 1.64 30.624 1.384 30.272C1.128 29.888 1 29.472 1 28.992C1 28.8 1 28.608 1.064 28.384C1.128 28.192 1.192 27.968 1.256 27.744C1.304 27.632 1.352 27.528 1.4 27.424C1.448 27.32 1.496 27.216 1.544 27.104C1.64 26.88 1.736 26.688 1.832 26.496L1.928 26.272C2.408 25.248 2.856 24.256 3.24 23.296C3.592 22.304 3.912 21.344 4.2 20.32C4.456 19.328 4.648 18.336 4.776 17.28C4.904 16.256 5 15.168 5 13.984C5 13.344 4.968 12.736 4.904 12.128C4.84 11.552 4.776 10.976 4.68 10.4L4.296 8.672C4.17478 8.23559 4.03518 7.79918 3.89113 7.34885C3.84506 7.20481 3.79853 7.05934 3.752 6.912C3.71461 6.79358 3.67721 6.67637 3.64005 6.55991C3.48642 6.07841 3.33684 5.60958 3.208 5.12C3.048 4.544 2.984 3.936 2.984 3.296V3.104V2.944C3.048 2.464 3.208 2.08 3.464 1.696C3.72 1.344 4.04 1.024 4.424 0.768C4.808 0.544 5.224 0.351999 5.672 0.191999C6.12 0.0639994 6.568 0 6.984 0H25ZM11.976 29.984C13.64 29.984 15.24 29.856 16.712 29.536C18.184 29.216 19.56 28.768 20.84 28.16C22.088 27.552 23.208 26.784 24.232 25.888C25.224 24.96 26.088 23.936 26.792 22.72C27.496 21.536 28.04 20.224 28.424 18.752C28.808 17.312 29 15.712 29 13.984C29 12.48 28.936 10.976 28.808 9.44C28.712 7.936 28.552 6.432 28.328 4.896C28.264 4.64 28.232 4.352 28.2 4.064C28.168 3.744 28.104 3.488 28.008 3.232C27.944 2.976 27.752 2.784 27.528 2.624C27.272 2.464 27.016 2.336 26.696 2.24C26.408 2.144 26.088 2.08 25.768 2.048C25.48 2.016 25.192 1.984 25 1.984H6.984C6.824 1.984 6.664 2.016 6.44 2.08C6.216 2.144 6.024 2.208 5.832 2.304C5.608 2.4 5.448 2.496 5.288 2.624C5.128 2.752 5.032 2.912 5 3.072C4.968 3.072 4.968 3.136 4.968 3.2V3.328C4.968 3.808 5.032 4.256 5.16 4.704C5.288 5.152 5.416 5.6 5.576 6.016L5.64 6.272C5.864 6.944 6.056 7.584 6.216 8.192L6.26413 8.38388C6.40749 8.95442 6.54564 9.50426 6.632 10.08C6.76 10.72 6.856 11.36 6.888 12C6.952 12.64 6.984 13.312 6.984 13.984C6.984 15.232 6.92 16.416 6.76 17.504C6.632 18.624 6.44 19.712 6.152 20.768C5.864 21.856 5.544 22.88 5.128 23.936C4.744 24.992 4.264 26.048 3.752 27.136C3.72 27.232 3.656 27.36 3.56 27.52C3.50348 27.6142 3.45806 27.7195 3.41066 27.8293C3.37755 27.9061 3.34348 27.985 3.304 28.064C3.208 28.256 3.144 28.448 3.08 28.64C3.016 28.8 2.984 28.928 2.984 28.992C2.984 29.12 3.08 29.248 3.24 29.376C3.27081 29.3945 3.30281 29.4142 3.33599 29.4346C3.47513 29.5201 3.63513 29.6185 3.816 29.696C4.04 29.792 4.264 29.856 4.488 29.92C4.712 29.984 4.872 29.984 5 29.984H11.976Z" fill="white"/>
</svg>
