<svg width="32" height="32" viewBox="0 0 32 32" fill="none" xmlns="http://www.w3.org/2000/svg">
<path d="M27.016 13.984C27.016 15.168 27.08 16.256 27.208 17.28C27.336 18.336 27.528 19.328 27.784 20.32C28.072 21.344 28.36 22.304 28.744 23.296C29.128 24.256 29.544 25.248 30.056 26.272L30.152 26.496C30.248 26.688 30.344 26.88 30.44 27.104C30.536 27.328 30.632 27.52 30.728 27.744C30.792 27.968 30.856 28.192 30.92 28.384C30.984 28.608 31.016 28.8 31.016 28.992C31.016 29.472 30.856 29.888 30.6 30.272C30.344 30.624 29.992 30.944 29.608 31.2C29.192 31.456 28.776 31.648 28.296 31.776C27.848 31.936 27.4 32 27.016 32H20.008C18.152 32 16.392 31.808 14.728 31.456C13.064 31.104 11.528 30.56 10.12 29.888C8.712 29.184 7.464 28.32 6.344 27.296C5.192 26.272 4.232 25.088 3.464 23.776C2.664 22.432 2.056 20.96 1.64 19.328C1.224 17.696 1 15.904 1 13.984C1 11.296 1.16 8.608 1.512 5.952C1.576 5.408 1.64 4.896 1.704 4.32C1.768 3.776 1.896 3.264 2.024 2.752C2.184 2.24 2.44 1.792 2.792 1.44C3.144 1.088 3.56 0.8 4.008 0.576C4.488 0.384 4.968 0.224 5.48 0.128C5.992 0.0320003 6.504 0 7.016 0H25C25.448 0 25.928 0.0640009 26.408 0.224001C26.888 0.384001 27.304 0.608 27.688 0.864C28.104 1.152 28.392 1.504 28.648 1.92C28.904 2.336 29 2.784 29 3.296C29 3.936 28.936 4.544 28.776 5.12C28.616 5.728 28.424 6.304 28.232 6.912C28.04 7.52 27.848 8.096 27.688 8.672C27.56 9.248 27.432 9.824 27.304 10.4C27.208 10.976 27.144 11.552 27.08 12.16C27.016 12.736 27.016 13.376 27.016 13.984ZM27.016 29.984C27.112 29.984 27.272 29.984 27.496 29.92C27.72 29.856 27.944 29.792 28.168 29.696C28.392 29.6 28.584 29.472 28.744 29.376C28.904 29.248 29 29.12 29 28.992C29 28.928 28.968 28.8 28.904 28.64C28.84 28.448 28.744 28.256 28.68 28.064C28.584 27.872 28.52 27.68 28.424 27.52C28.328 27.36 28.264 27.232 28.232 27.136C27.72 26.048 27.24 24.992 26.856 23.936C26.44 22.88 26.12 21.856 25.832 20.768C25.544 19.712 25.352 18.624 25.224 17.504C25.064 16.416 25 15.232 25 13.984C25 13.312 25.032 12.64 25.096 12C25.128 11.328 25.224 10.688 25.352 10.08C25.448 9.44 25.608 8.832 25.768 8.192C25.928 7.584 26.12 6.944 26.344 6.272L26.408 6.016C26.568 5.6 26.696 5.152 26.824 4.704C26.952 4.256 27.016 3.808 27.016 3.328V3.072C27.016 2.912 26.92 2.784 26.76 2.656C26.568 2.528 26.376 2.4 26.184 2.304C25.96 2.208 25.736 2.144 25.512 2.08C25.288 2.016 25.128 1.984 25 1.984H7.016C6.792 1.984 6.504 2.016 6.216 2.048C5.896 2.08 5.576 2.144 5.288 2.24C4.968 2.336 4.712 2.464 4.456 2.624C4.232 2.784 4.04 2.976 3.976 3.232C3.88 3.488 3.816 3.744 3.784 4.064C3.752 4.352 3.72 4.64 3.656 4.896C3.432 6.432 3.272 7.936 3.176 9.44C3.048 10.976 3.016 12.48 3.016 13.984C3.016 15.712 3.176 17.312 3.56 18.752C3.944 20.224 4.488 21.536 5.192 22.72C5.896 23.936 6.76 24.96 7.752 25.888C8.776 26.784 9.896 27.552 11.144 28.16C12.424 28.768 13.8 29.216 15.272 29.536C16.744 29.856 18.344 29.984 20.008 29.984H27.016ZM15.016 13.504C15.016 14.08 14.856 14.592 14.6 15.072C14.344 15.552 13.96 15.968 13.512 16.256L15.016 20H13L11.784 16.928C11.56 16.992 11.368 16.992 11.144 17.024C10.952 17.024 10.728 17.024 10.536 17.024L9 16.992V20H7.016V9.984H11.016C11.496 9.984 12.008 10.08 12.488 10.24C12.968 10.4 13.384 10.624 13.768 10.912C14.152 11.232 14.44 11.584 14.664 12.032C14.888 12.448 15.016 12.96 15.016 13.504ZM11.016 15.008C11.208 15.008 11.432 14.976 11.688 14.912C11.912 14.848 12.136 14.752 12.328 14.656C12.52 14.528 12.68 14.368 12.808 14.176C12.936 13.984 13 13.76 13 13.504C13 13.248 12.936 13.024 12.808 12.832C12.68 12.64 12.52 12.48 12.328 12.352C12.136 12.224 11.912 12.128 11.688 12.096C11.432 12.032 11.208 12 11.016 12H9V15.008H11.016ZM15.016 9.984H23.016V12H20.008V20H17.992V12H15.016V9.984Z" fill="white"/>
</svg>
