<svg width="32" height="32" viewBox="0 0 32 32" fill="none" xmlns="http://www.w3.org/2000/svg">
<path d="M14.4069 31.9262C11.9518 31.7125 9.44336 30.8041 7.3085 29.4149C5.49386 28.2393 5.12026 27.7584 5.12026 26.7966C5.12026 24.8731 7.25513 21.4534 10.8844 17.6062C12.9659 15.4154 15.848 12.8506 16.1148 12.9041C16.7019 13.0644 21.5587 17.7665 23.32 20.0107C26.2021 23.5372 27.483 26.4226 26.8425 27.705C26.3088 28.6668 23.1599 30.5904 20.8649 31.3385C18.9435 31.8728 16.435 32.1399 14.4069 31.9262ZM2.66517 24.7662C1.17076 22.4686 0.423562 20.2244 0.0499603 16.965C-0.0567829 15.8963 -0.00341145 15.2551 0.316818 13.0644C0.743791 10.2859 2.34494 7.13331 4.21295 5.15628C5.01352 4.30136 5.06689 4.30136 6.08095 4.62195C7.25513 5.04942 8.53605 5.90435 10.5108 7.66764L11.685 8.68286L11.0445 9.43092C8.10907 13.0644 5.01352 18.1405 3.89272 21.2931C3.25226 23.0029 2.9854 24.7128 3.30563 25.4074C3.46574 25.8883 3.25226 25.728 2.66517 24.7662ZM28.8706 25.1937C29.0307 24.499 28.8173 23.1632 28.3903 21.8274C27.4296 18.8886 24.2807 13.5453 21.3986 9.85839L20.4913 8.68286L21.5054 7.7745C22.7863 6.59898 23.6936 5.85091 24.6543 5.26315C25.3481 4.83569 26.4689 4.40822 26.9493 4.40822C27.2161 4.40822 28.2835 5.47688 29.0841 6.59898C30.365 8.36226 31.2724 10.553 31.7527 12.7972C32.0729 14.2399 32.0729 17.3924 31.8061 18.8351C31.5926 20.0107 31.0589 21.5602 30.6319 22.6289C30.2583 23.4304 29.4043 24.9265 28.9774 25.4608C28.7639 25.728 28.7639 25.728 28.8706 25.1937ZM14.6738 3.87389C13.3395 3.17926 11.258 2.48463 10.1372 2.2709C9.71022 2.21747 9.06976 2.16404 8.64279 2.16404C7.6821 2.21747 7.73547 2.16404 9.22988 1.46941C10.5108 0.881645 11.5249 0.507614 12.9659 0.240449C14.567 -0.0801495 17.5558 -0.0801495 19.157 0.240449C20.8649 0.61448 22.8396 1.36254 24.0138 2.05717L24.334 2.2709L23.5868 2.21747C22.0391 2.16404 19.8508 2.7518 17.4491 3.92733C16.7019 4.30136 16.1148 4.56852 16.0614 4.56852C15.9013 4.46166 15.3142 4.19449 14.6738 3.87389Z" fill="white"/>
</svg>
